<svg version="1.1" xmlns="http://www.w3.org/2000/svg" viewBox="0 0 629.3316313799505 458.20114506403564" width="629.3316313799505" height="458.20114506403564"><!-- svg-source:excalidraw --><metadata></metadata><defs><clipPath id="JxcV6Ll21dw8rWkyR_qVE"><rect transform="translate(-2.842170943040401e-14 0) rotate(0 314.66581568997526 229.10057253201782)" width="629.3316313799505" height="458.20114506403564"></rect></clipPath><style class="style-fonts">
      </style></defs><g stroke-linecap="round" transform="translate(83.1722611091692 -159.82453914886156) rotate(301.97122691927433 285.12172921255893 245.2448961964112)"><path d="M32 0 C143.02 0, 254.05 0, 538.24 0 C559.58 0, 570.24 10.67, 570.24 32 C570.24 117.93, 570.24 203.85, 570.24 458.49 C570.24 479.82, 559.58 490.49, 538.24 490.49 C359.74 490.49, 181.23 490.49, 32 490.49 C10.67 490.49, 0 479.82, 0 458.49 C0 360.6, 0 262.71, 0 32 C0 10.67, 10.67 0, 32 0" stroke="none" stroke-width="0" fill="#1e1e1e"></path><path d="M32 0 C197.59 0, 363.18 0, 538.24 0 M32 0 C208.2 0, 384.41 0, 538.24 0 M538.24 0 C559.58 0, 570.24 10.67, 570.24 32 M538.24 0 C559.58 0, 570.24 10.67, 570.24 32 M570.24 32 C570.24 135.51, 570.24 239.02, 570.24 458.49 M570.24 32 C570.24 147.85, 570.24 263.71, 570.24 458.49 M570.24 458.49 C570.24 479.82, 559.58 490.49, 538.24 490.49 M570.24 458.49 C570.24 479.82, 559.58 490.49, 538.24 490.49 M538.24 490.49 C408.64 490.49, 279.03 490.49, 32 490.49 M538.24 490.49 C398.73 490.49, 259.21 490.49, 32 490.49 M32 490.49 C10.67 490.49, 0 479.82, 0 458.49 M32 490.49 C10.67 490.49, 0 479.82, 0 458.49 M0 458.49 C0 296.07, 0 133.65, 0 32 M0 458.49 C0 287.99, 0 117.49, 0 32 M0 32 C0 10.67, 10.67 0, 32 0 M0 32 C0 10.67, 10.67 0, 32 0" stroke="transparent" stroke-width="4" fill="none"></path></g><g stroke-linecap="round" transform="translate(108.74327851478685 29.888383922583937) rotate(331.0421287384238 162.28688729886625 136.39841214919718)"><path d="M32 0 C118.88 0, 205.76 0, 292.57 0 C313.91 0, 324.57 10.67, 324.57 32 C324.57 99.69, 324.57 167.37, 324.57 240.8 C324.57 262.13, 313.91 272.8, 292.57 272.8 C214.11 272.8, 135.65 272.8, 32 272.8 C10.67 272.8, 0 262.13, 0 240.8 C0 192, 0 143.21, 0 32 C0 10.67, 10.67 0, 32 0" stroke="none" stroke-width="0" fill="#343a40"></path><path d="M32 0 C104.88 0, 177.75 0, 292.57 0 M32 0 C130.98 0, 229.95 0, 292.57 0 M292.57 0 C313.91 0, 324.57 10.67, 324.57 32 M292.57 0 C313.91 0, 324.57 10.67, 324.57 32 M324.57 32 C324.57 83.23, 324.57 134.46, 324.57 240.8 M324.57 32 C324.57 111.61, 324.57 191.22, 324.57 240.8 M324.57 240.8 C324.57 262.13, 313.91 272.8, 292.57 272.8 M324.57 240.8 C324.57 262.13, 313.91 272.8, 292.57 272.8 M292.57 272.8 C197.73 272.8, 102.88 272.8, 32 272.8 M292.57 272.8 C236.75 272.8, 180.92 272.8, 32 272.8 M32 272.8 C10.67 272.8, 0 262.13, 0 240.8 M32 272.8 C10.67 272.8, 0 262.13, 0 240.8 M0 240.8 C0 181.3, 0 121.81, 0 32 M0 240.8 C0 196.04, 0 151.29, 0 32 M0 32 C0 10.67, 10.67 0, 32 0 M0 32 C0 10.67, 10.67 0, 32 0" stroke="transparent" stroke-width="4" fill="none"></path></g><g clip-path="url(#JxcV6Ll21dw8rWkyR_qVE)"><g stroke-linecap="round" transform="translate(247.92634396724037 70.41046692144133) rotate(277.32405254859805 123.52915654779153 127.72675270091757)"><path d="M32 0 C71.24 0, 110.47 0, 215.06 0 C236.39 0, 247.06 10.67, 247.06 32 C247.06 93, 247.06 153.99, 247.06 223.45 C247.06 244.79, 236.39 255.45, 215.06 255.45 C159.74 255.45, 104.42 255.45, 32 255.45 C10.67 255.45, 0 244.79, 0 223.45 C0 163.93, 0 104.4, 0 32 C0 10.67, 10.67 0, 32 0" stroke="none" stroke-width="0" fill="#868e96"></path><path d="M32 0 C68.62 0, 105.25 0, 215.06 0 M32 0 C96.31 0, 160.63 0, 215.06 0 M215.06 0 C236.39 0, 247.06 10.67, 247.06 32 M215.06 0 C236.39 0, 247.06 10.67, 247.06 32 M247.06 32 C247.06 104.72, 247.06 177.45, 247.06 223.45 M247.06 32 C247.06 105.95, 247.06 179.9, 247.06 223.45 M247.06 223.45 C247.06 244.79, 236.39 255.45, 215.06 255.45 M247.06 223.45 C247.06 244.79, 236.39 255.45, 215.06 255.45 M215.06 255.45 C145.26 255.45, 75.47 255.45, 32 255.45 M215.06 255.45 C150.93 255.45, 86.8 255.45, 32 255.45 M32 255.45 C10.67 255.45, 0 244.79, 0 223.45 M32 255.45 C10.67 255.45, 0 244.79, 0 223.45 M0 223.45 C0 182.44, 0 141.42, 0 32 M0 223.45 C0 149.06, 0 74.66, 0 32 M0 32 C0 10.67, 10.67 0, 32 0 M0 32 C0 10.67, 10.67 0, 32 0" stroke="transparent" stroke-width="4" fill="none"></path></g></g><g stroke-linecap="round" transform="translate(151.62136126402447 18.56613437942817) rotate(309.66277883279116 153.87797359395176 146.70023906239027)"><path d="M32 0 C108.08 0, 184.15 0, 275.76 0 C297.09 0, 307.76 10.67, 307.76 32 C307.76 116.59, 307.76 201.17, 307.76 261.4 C307.76 282.73, 297.09 293.4, 275.76 293.4 C192.67 293.4, 109.58 293.4, 32 293.4 C10.67 293.4, 0 282.73, 0 261.4 C0 201.8, 0 142.19, 0 32 C0 10.67, 10.67 0, 32 0" stroke="none" stroke-width="0" fill="#ced4da"></path><path d="M32 0 C94.99 0, 157.99 0, 275.76 0 M32 0 C81.77 0, 131.54 0, 275.76 0 M275.76 0 C297.09 0, 307.76 10.67, 307.76 32 M275.76 0 C297.09 0, 307.76 10.67, 307.76 32 M307.76 32 C307.76 79.4, 307.76 126.79, 307.76 261.4 M307.76 32 C307.76 95.95, 307.76 159.9, 307.76 261.4 M307.76 261.4 C307.76 282.73, 297.09 293.4, 275.76 293.4 M307.76 261.4 C307.76 282.73, 297.09 293.4, 275.76 293.4 M275.76 293.4 C196.48 293.4, 117.21 293.4, 32 293.4 M275.76 293.4 C203.74 293.4, 131.72 293.4, 32 293.4 M32 293.4 C10.67 293.4, 0 282.73, 0 261.4 M32 293.4 C10.67 293.4, 0 282.73, 0 261.4 M0 261.4 C0 202.04, 0 142.68, 0 32 M0 261.4 C0 170.53, 0 79.66, 0 32 M0 32 C0 10.67, 10.67 0, 32 0 M0 32 C0 10.67, 10.67 0, 32 0" stroke="transparent" stroke-width="4" fill="none"></path></g><g stroke-linecap="round" transform="translate(258.0508598278358 13.986176981564284) rotate(312.1149061773945 115.03190760848332 137.4017804719737)"><path d="M32 0 C92.69 0, 153.37 0, 198.06 0 C219.4 0, 230.06 10.67, 230.06 32 C230.06 89.09, 230.06 146.19, 230.06 242.8 C230.06 264.14, 219.4 274.8, 198.06 274.8 C151.57 274.8, 105.08 274.8, 32 274.8 C10.67 274.8, 0 264.14, 0 242.8 C0 186.66, 0 130.52, 0 32 C0 10.67, 10.67 0, 32 0" stroke="none" stroke-width="0" fill="#e9ecef"></path><path d="M32 0 C82.62 0, 133.23 0, 198.06 0 M32 0 C68.9 0, 105.8 0, 198.06 0 M198.06 0 C219.4 0, 230.06 10.67, 230.06 32 M198.06 0 C219.4 0, 230.06 10.67, 230.06 32 M230.06 32 C230.06 105.42, 230.06 178.83, 230.06 242.8 M230.06 32 C230.06 75.76, 230.06 119.53, 230.06 242.8 M230.06 242.8 C230.06 264.14, 219.4 274.8, 198.06 274.8 M230.06 242.8 C230.06 264.14, 219.4 274.8, 198.06 274.8 M198.06 274.8 C151.8 274.8, 105.54 274.8, 32 274.8 M198.06 274.8 C135.71 274.8, 73.36 274.8, 32 274.8 M32 274.8 C10.67 274.8, 0 264.14, 0 242.8 M32 274.8 C10.67 274.8, 0 264.14, 0 242.8 M0 242.8 C0 191.03, 0 139.26, 0 32 M0 242.8 C0 165.47, 0 88.14, 0 32 M0 32 C0 10.67, 10.67 0, 32 0 M0 32 C0 10.67, 10.67 0, 32 0" stroke="transparent" stroke-width="4" fill="none"></path></g><g stroke-linecap="round"><g transform="translate(137.8415931645826 -16.220481245166383) rotate(0 -43.981047674633004 146.0103004189603)" fill-rule="evenodd"><path d="M1.7 2.06 C-0.29 2.29, -2.04 -2.41, -10.66 0 C-19.29 2.4, -39.94 10.27, -50.06 16.47 C-60.19 22.67, -63.17 24.74, -71.4 37.19 C-79.63 49.64, -85.54 83.4, -99.43 91.16 C-113.33 98.93, -141.09 83.37, -154.78 83.8 C-168.46 84.22, -173.63 87.25, -181.55 93.73 C-189.47 100.21, -199.29 110.93, -202.3 122.66 C-205.31 134.39, -203.06 151.19, -199.62 164.11 C-196.18 177.03, -183.46 185.08, -181.66 200.18 C-179.85 215.28, -194.09 240.03, -188.78 254.69 C-183.47 269.35, -164.56 281.88, -149.79 288.16 C-135.03 294.43, -115.81 298.17, -100.2 292.35 C-84.59 286.54, -72.35 260.01, -56.14 253.29 C-39.93 246.57, -20.49 247.99, -2.95 252.04 C14.58 256.08, 33.67 276.5, 49.07 277.56 C64.46 278.62, 80.4 268.5, 89.42 258.4 C98.43 248.3, 101.54 231.25, 103.17 216.97 C104.8 202.69, 102.55 186.79, 99.19 172.73 C95.84 158.67, 85.75 143.4, 83.04 132.59 C80.33 121.78, 80.27 116.1, 82.94 107.87 C85.61 99.64, 94.36 89.8, 99.07 83.19 C103.78 76.58, 108.88 75.63, 111.18 68.21 C113.49 60.8, 114.36 46.48, 112.92 38.68 C111.48 30.88, 106.99 26.28, 102.54 21.42 C98.1 16.55, 93.93 9.9, 86.26 9.47 C78.6 9.05, 66.22 18.92, 56.56 18.87 C46.91 18.81, 37.62 12.07, 28.32 9.16 C19.02 6.25, 5.16 2.54, 0.77 1.4" stroke="none" stroke-width="0" fill="#e9ecef" fill-rule="evenodd"></path><path d="M0.61 0.96 C-1.18 0.96, -2.17 -1.34, -10.71 1.04 C-19.26 3.42, -40.59 9.05, -50.66 15.27 C-60.73 21.48, -62.78 25.66, -71.14 38.32 C-79.5 50.99, -87.13 83.69, -100.82 91.25 C-114.5 98.8, -139.82 83.17, -153.27 83.67 C-166.71 84.17, -173.63 87.75, -181.48 94.26 C-189.33 100.77, -197.66 111.43, -200.37 122.72 C-203.09 134.01, -201.25 149.22, -197.75 161.99 C-194.26 174.75, -180.97 183.66, -179.39 199.3 C-177.8 214.94, -192.74 241.38, -188.23 255.81 C-183.73 270.25, -166.51 280.26, -152.37 285.93 C-138.22 291.59, -119.28 295.09, -103.34 289.82 C-87.4 284.56, -73.39 260.65, -56.7 254.33 C-40.01 248.01, -21.19 248.42, -3.2 251.92 C14.79 255.42, 36.08 274.32, 51.22 275.31 C66.35 276.31, 79.42 267.51, 87.61 257.9 C95.81 248.3, 98.62 231.7, 100.37 217.69 C102.11 203.69, 101.05 187.8, 98.06 173.87 C95.07 159.95, 84.82 145.15, 82.43 134.15 C80.03 123.15, 81.41 116.18, 83.69 107.87 C85.97 99.56, 91.34 91.34, 96.09 84.32 C100.85 77.3, 109.19 73.57, 112.24 65.76 C115.3 57.94, 115.79 45.17, 114.42 37.41 C113.05 29.66, 108.72 23.4, 104.04 19.22 C99.37 15.05, 94.35 12.6, 86.35 12.36 C78.36 12.12, 65.18 18.56, 56.07 17.79 C46.95 17.03, 40.97 10.64, 31.67 7.79 C22.37 4.94, 5.63 2.05, 0.27 0.69 M-0.52 0.42 C-2.46 1.05, -3.06 -0.59, -11.55 2.02 C-20.03 4.63, -41.63 9.9, -51.44 16.08 C-61.26 22.26, -62.51 26.42, -70.44 39.09 C-78.37 51.76, -84.86 84.79, -99 92.09 C-113.14 99.39, -141.59 82.76, -155.28 82.89 C-168.96 83.01, -173.4 86.19, -181.12 92.86 C-188.83 99.52, -198.59 111.57, -201.57 122.88 C-204.56 134.18, -202.89 147.95, -199.04 160.7 C-195.18 173.44, -180.22 183.88, -178.46 199.36 C-176.7 214.85, -193.12 238.72, -188.47 253.59 C-183.81 268.45, -164.65 282.69, -150.53 288.56 C-136.41 294.43, -119.79 294.61, -103.74 288.81 C-87.69 283.01, -71.09 259.49, -54.21 253.76 C-37.34 248.03, -20.24 250.63, -2.48 254.45 C15.28 258.27, 36.96 275.99, 52.34 276.67 C67.73 277.34, 81.52 268.76, 89.82 258.48 C98.12 248.2, 100.97 229.03, 102.14 215 C103.32 200.98, 100.58 187.5, 96.86 174.32 C93.14 161.13, 82.2 147.14, 79.83 135.9 C77.45 124.67, 79.89 115.73, 82.6 106.91 C85.31 98.09, 91.09 89.45, 96.1 82.99 C101.1 76.52, 109.84 75.31, 112.63 68.11 C115.42 60.91, 114.03 47.95, 112.83 39.79 C111.62 31.63, 110.15 23.65, 105.42 19.15 C100.69 14.65, 92.98 13, 84.43 12.79 C75.88 12.58, 63.2 18.99, 54.11 17.89 C45.02 16.8, 38.82 9.38, 29.89 6.22 C20.96 3.06, 5.35 -0.29, 0.52 -1.04" stroke="transparent" stroke-width="2" fill="none"></path></g></g><mask></mask></svg>