<svg width="808" height="97" viewBox="0 0 808 97" fill="none" xmlns="http://www.w3.org/2000/svg">
<rect width="808" height="97" fill="white"/>
<path d="M377.942 59.1811H376.614C376.576 58.9633 376.507 58.7704 376.405 58.6023C376.303 58.4318 376.176 58.2874 376.025 58.169C375.873 58.0507 375.701 57.9619 375.506 57.9027C375.315 57.8411 375.107 57.8104 374.885 57.8104C374.49 57.8104 374.139 57.9098 373.834 58.1087C373.528 58.3052 373.289 58.594 373.116 58.9751C372.944 59.3539 372.857 59.8168 372.857 60.3636C372.857 60.92 372.944 61.3887 373.116 61.7699C373.292 62.1487 373.531 62.4351 373.834 62.6293C374.139 62.821 374.488 62.9169 374.881 62.9169C375.099 62.9169 375.303 62.8885 375.492 62.8317C375.684 62.7725 375.856 62.6861 376.007 62.5724C376.161 62.4588 376.29 62.3191 376.394 62.1534C376.501 61.9877 376.574 61.7983 376.614 61.5852L377.942 61.5923C377.893 61.938 377.785 62.2623 377.619 62.5653C377.456 62.8684 377.242 63.1359 376.977 63.3679C376.711 63.5975 376.401 63.7775 376.046 63.9077C375.691 64.0355 375.297 64.0994 374.864 64.0994C374.224 64.0994 373.654 63.9515 373.152 63.6555C372.65 63.3596 372.255 62.9323 371.966 62.3736C371.677 61.8149 371.533 61.1449 371.533 60.3636C371.533 59.58 371.678 58.91 371.969 58.3537C372.261 57.795 372.657 57.3677 373.159 57.0717C373.661 56.7758 374.229 56.6278 374.864 56.6278C375.268 56.6278 375.645 56.6847 375.993 56.7983C376.341 56.9119 376.651 57.0788 376.923 57.299C377.196 57.5168 377.419 57.7843 377.594 58.1016C377.772 58.4164 377.888 58.7763 377.942 59.1811ZM381.671 64.1065C381.139 64.1065 380.677 63.9893 380.286 63.755C379.896 63.5206 379.593 63.1927 379.377 62.7713C379.164 62.3499 379.058 61.8575 379.058 61.294C379.058 60.7306 379.164 60.237 379.377 59.8132C379.593 59.3894 379.896 59.0604 380.286 58.826C380.677 58.5916 381.139 58.4744 381.671 58.4744C382.204 58.4744 382.666 58.5916 383.056 58.826C383.447 59.0604 383.749 59.3894 383.962 59.8132C384.177 60.237 384.285 60.7306 384.285 61.294C384.285 61.8575 384.177 62.3499 383.962 62.7713C383.749 63.1927 383.447 63.5206 383.056 63.755C382.666 63.9893 382.204 64.1065 381.671 64.1065ZM381.679 63.0767C381.967 63.0767 382.209 62.9974 382.403 62.8388C382.597 62.6778 382.741 62.4624 382.836 62.1925C382.933 61.9226 382.982 61.6219 382.982 61.2905C382.982 60.9567 382.933 60.6548 382.836 60.3849C382.741 60.1127 382.597 59.8961 382.403 59.7351C382.209 59.5741 381.967 59.4936 381.679 59.4936C381.383 59.4936 381.136 59.5741 380.94 59.7351C380.746 59.8961 380.6 60.1127 380.503 60.3849C380.408 60.6548 380.361 60.9567 380.361 61.2905C380.361 61.6219 380.408 61.9226 380.503 62.1925C380.6 62.4624 380.746 62.6778 380.94 62.8388C381.136 62.9974 381.383 63.0767 381.679 63.0767ZM385.576 64V58.5455H386.805V59.4723H386.869C386.982 59.1598 387.171 58.916 387.433 58.7408C387.696 58.5632 388.01 58.4744 388.374 58.4744C388.744 58.4744 389.055 58.5644 389.308 58.7443C389.564 58.9219 389.744 59.1645 389.848 59.4723H389.905C390.026 59.1693 390.229 58.9278 390.516 58.7479C390.805 58.5656 391.147 58.4744 391.542 58.4744C392.044 58.4744 392.454 58.633 392.771 58.9503C393.088 59.2675 393.247 59.7304 393.247 60.3388V64H391.958V60.5376C391.958 60.1991 391.868 59.9517 391.688 59.7955C391.508 59.6368 391.288 59.5575 391.027 59.5575C390.717 59.5575 390.474 59.6546 390.299 59.8487C390.126 60.0405 390.04 60.2902 390.04 60.598V64H388.779V60.4844C388.779 60.2027 388.694 59.9777 388.524 59.8097C388.355 59.6416 388.135 59.5575 387.863 59.5575C387.678 59.5575 387.51 59.6049 387.359 59.6996C387.207 59.7919 387.087 59.9233 386.997 60.0938C386.907 60.2618 386.862 60.4583 386.862 60.6832V64H385.576ZM394.751 66.0455V58.5455H396.015V59.4474H396.09C396.156 59.3149 396.249 59.174 396.37 59.0249C396.491 58.8733 396.654 58.7443 396.86 58.6378C397.066 58.5289 397.329 58.4744 397.648 58.4744C398.07 58.4744 398.45 58.5821 398.788 58.7976C399.129 59.0107 399.399 59.3267 399.598 59.7457C399.799 60.1624 399.9 60.6738 399.9 61.2798C399.9 61.8788 399.802 62.3878 399.605 62.8068C399.409 63.2259 399.141 63.5455 398.803 63.7656C398.464 63.9858 398.081 64.0959 397.652 64.0959C397.34 64.0959 397.08 64.0438 396.874 63.9396C396.668 63.8355 396.503 63.71 396.377 63.5632C396.254 63.4141 396.158 63.2732 396.09 63.1406H396.036V66.0455H394.751ZM396.011 61.2727C396.011 61.6255 396.061 61.9344 396.161 62.1996C396.262 62.4647 396.408 62.6719 396.597 62.821C396.789 62.9678 397.021 63.0412 397.293 63.0412C397.577 63.0412 397.815 62.9654 398.007 62.8139C398.199 62.66 398.343 62.4505 398.44 62.1854C398.54 61.9179 398.59 61.6136 398.59 61.2727C398.59 60.9342 398.541 60.6335 398.444 60.3707C398.347 60.108 398.202 59.902 398.011 59.7528C397.819 59.6037 397.58 59.5291 397.293 59.5291C397.019 59.5291 396.786 59.6013 396.594 59.7457C396.402 59.8902 396.256 60.0926 396.157 60.353C396.06 60.6134 396.011 60.92 396.011 61.2727ZM403.616 64.1065C403.069 64.1065 402.596 63.9929 402.199 63.7656C401.803 63.536 401.499 63.2116 401.286 62.7926C401.073 62.3712 400.966 61.8752 400.966 61.3047C400.966 60.7436 401.073 60.2512 401.286 59.8274C401.501 59.4013 401.802 59.0698 402.188 58.8331C402.574 58.594 403.027 58.4744 403.548 58.4744C403.884 58.4744 404.201 58.5289 404.5 58.6378C404.8 58.7443 405.066 58.91 405.295 59.1349C405.527 59.3598 405.71 59.6463 405.842 59.9943C405.975 60.34 406.041 60.7519 406.041 61.2301V61.6243H401.57V60.7578H404.809C404.806 60.5116 404.753 60.2926 404.649 60.1009C404.545 59.9067 404.399 59.754 404.212 59.6428C404.027 59.5315 403.812 59.4759 403.566 59.4759C403.303 59.4759 403.072 59.5398 402.873 59.6676C402.674 59.7931 402.519 59.9588 402.408 60.1648C402.299 60.3684 402.244 60.5921 402.241 60.8359V61.5923C402.241 61.9096 402.299 62.1818 402.415 62.4091C402.531 62.634 402.693 62.8068 402.902 62.9276C403.11 63.0459 403.354 63.1051 403.633 63.1051C403.82 63.1051 403.99 63.0791 404.141 63.027C404.293 62.9725 404.424 62.8932 404.535 62.7891C404.647 62.6849 404.731 62.5559 404.787 62.402L405.988 62.5369C405.912 62.8542 405.768 63.1312 405.554 63.3679C405.344 63.6023 405.074 63.7846 404.745 63.9148C404.416 64.0426 404.039 64.1065 403.616 64.1065ZM410.052 58.5455V59.5398H406.917V58.5455H410.052ZM407.691 57.2386H408.976V62.3594C408.976 62.5322 409.002 62.6648 409.054 62.7571C409.109 62.8471 409.18 62.9086 409.267 62.9418C409.355 62.9749 409.452 62.9915 409.559 62.9915C409.639 62.9915 409.712 62.9856 409.779 62.9737C409.847 62.9619 409.9 62.9512 409.935 62.9418L410.152 63.9467C410.083 63.9704 409.985 63.9964 409.857 64.0249C409.731 64.0533 409.578 64.0698 409.395 64.0746C409.073 64.084 408.783 64.0355 408.525 63.929C408.267 63.8201 408.062 63.652 407.911 63.4247C407.762 63.1974 407.688 62.9134 407.691 62.5724V57.2386ZM411.327 64V58.5455H412.613V64H411.327ZM411.974 57.7713C411.77 57.7713 411.595 57.7038 411.448 57.5689C411.301 57.4316 411.228 57.267 411.228 57.0753C411.228 56.8812 411.301 56.7166 411.448 56.5817C411.595 56.4444 411.77 56.3757 411.974 56.3757C412.18 56.3757 412.355 56.4444 412.499 56.5817C412.646 56.7166 412.719 56.8812 412.719 57.0753C412.719 57.267 412.646 57.4316 412.499 57.5689C412.355 57.7038 412.18 57.7713 411.974 57.7713ZM415.42 60.804V64H414.135V58.5455H415.363V59.4723H415.427C415.553 59.1669 415.753 58.9242 416.027 58.7443C416.304 58.5644 416.647 58.4744 417.054 58.4744C417.43 58.4744 417.758 58.5549 418.037 58.7159C418.319 58.8769 418.537 59.1101 418.691 59.4155C418.847 59.7209 418.924 60.0914 418.922 60.527V64H417.636V60.7259C417.636 60.3613 417.541 60.076 417.352 59.87C417.165 59.6641 416.906 59.5611 416.574 59.5611C416.349 59.5611 416.149 59.6108 415.974 59.7102C415.801 59.8073 415.665 59.9482 415.566 60.1328C415.469 60.3175 415.42 60.5412 415.42 60.804ZM422.801 66.1591C422.339 66.1591 421.942 66.0964 421.611 65.9709C421.28 65.8478 421.013 65.6821 420.812 65.4737C420.611 65.2654 420.471 65.0346 420.393 64.7812L421.551 64.5007C421.603 64.6072 421.678 64.7126 421.778 64.8168C421.877 64.9233 422.011 65.0109 422.179 65.0795C422.35 65.1506 422.564 65.1861 422.822 65.1861C423.187 65.1861 423.488 65.0973 423.727 64.9197C423.967 64.7446 424.086 64.4557 424.086 64.0533V63.0199H424.022C423.956 63.1525 423.859 63.2886 423.731 63.4283C423.606 63.5679 423.439 63.6851 423.23 63.7798C423.024 63.8745 422.765 63.9219 422.453 63.9219C422.034 63.9219 421.654 63.8236 421.313 63.6271C420.974 63.4283 420.704 63.1323 420.503 62.7393C420.304 62.344 420.205 61.8492 420.205 61.255C420.205 60.656 420.304 60.1506 420.503 59.7386C420.704 59.3243 420.975 59.0107 421.316 58.7976C421.657 58.5821 422.037 58.4744 422.456 58.4744C422.776 58.4744 423.039 58.5289 423.245 58.6378C423.453 58.7443 423.619 58.8733 423.742 59.0249C423.865 59.174 423.958 59.3149 424.022 59.4474H424.093V58.5455H425.361V64.0888C425.361 64.5552 425.25 64.9411 425.027 65.2464C424.805 65.5518 424.5 65.7803 424.115 65.9318C423.729 66.0833 423.291 66.1591 422.801 66.1591ZM422.811 62.9134C423.084 62.9134 423.316 62.8471 423.507 62.7145C423.699 62.5819 423.845 62.3913 423.944 62.1428C424.044 61.8942 424.093 61.5959 424.093 61.2479C424.093 60.9046 424.044 60.6039 423.944 60.3459C423.847 60.0878 423.703 59.8878 423.511 59.7457C423.321 59.6013 423.088 59.5291 422.811 59.5291C422.525 59.5291 422.286 59.6037 422.094 59.7528C421.902 59.902 421.758 60.1068 421.661 60.3672C421.564 60.6252 421.515 60.9188 421.515 61.2479C421.515 61.5817 421.564 61.8741 421.661 62.125C421.76 62.3736 421.906 62.5677 422.098 62.7074C422.292 62.8447 422.53 62.9134 422.811 62.9134ZM429.616 64V56.7273H432.343C432.902 56.7273 433.371 56.8243 433.749 57.0185C434.13 57.2126 434.418 57.4848 434.612 57.8352C434.809 58.1832 434.907 58.5893 434.907 59.0533C434.907 59.5196 434.808 59.9245 434.609 60.2678C434.412 60.6087 434.122 60.8726 433.739 61.0597C433.355 61.2443 432.884 61.3366 432.325 61.3366H430.383V60.2429H432.148C432.474 60.2429 432.742 60.1979 432.95 60.108C433.159 60.0156 433.313 59.8819 433.412 59.7067C433.514 59.5291 433.565 59.3113 433.565 59.0533C433.565 58.7952 433.514 58.575 433.412 58.3928C433.31 58.2081 433.155 58.0684 432.947 57.9737C432.738 57.8767 432.47 57.8281 432.141 57.8281H430.933V64H429.616ZM433.373 60.7045L435.173 64H433.703L431.935 60.7045H433.373ZM436.263 64V58.5455H437.548V64H436.263ZM436.909 57.7713C436.706 57.7713 436.53 57.7038 436.384 57.5689C436.237 57.4316 436.163 57.267 436.163 57.0753C436.163 56.8812 436.237 56.7166 436.384 56.5817C436.53 56.4444 436.706 56.3757 436.909 56.3757C437.115 56.3757 437.29 56.4444 437.435 56.5817C437.582 56.7166 437.655 56.8812 437.655 57.0753C437.655 57.267 437.582 57.4316 437.435 57.5689C437.29 57.7038 437.115 57.7713 436.909 57.7713ZM443.381 59.9872L442.209 60.1151C442.176 59.9967 442.118 59.8854 442.035 59.7812C441.955 59.6771 441.846 59.593 441.709 59.5291C441.571 59.4652 441.403 59.4332 441.205 59.4332C440.937 59.4332 440.712 59.4912 440.53 59.6072C440.35 59.7232 440.261 59.8736 440.263 60.0582C440.261 60.2169 440.319 60.3459 440.437 60.4453C440.558 60.5447 440.757 60.6264 441.034 60.6903L441.964 60.8892C442.481 61.0005 442.864 61.1768 443.115 61.4183C443.368 61.6598 443.496 61.9759 443.499 62.3665C443.496 62.7098 443.396 63.0128 443.197 63.2756C443 63.536 442.727 63.7396 442.376 63.8864C442.026 64.0331 441.624 64.1065 441.169 64.1065C440.501 64.1065 439.964 63.9669 439.557 63.6875C439.15 63.4058 438.907 63.014 438.829 62.5121L440.082 62.3913C440.139 62.6375 440.26 62.8234 440.445 62.9489C440.629 63.0743 440.87 63.1371 441.165 63.1371C441.471 63.1371 441.716 63.0743 441.901 62.9489C442.088 62.8234 442.181 62.6683 442.181 62.4837C442.181 62.3274 442.121 62.1984 442 62.0966C441.882 61.9948 441.697 61.9167 441.446 61.8622L440.516 61.6669C439.992 61.558 439.605 61.3745 439.354 61.1165C439.103 60.8561 438.979 60.527 438.982 60.1293C438.979 59.7931 439.07 59.5019 439.255 59.2557C439.442 59.0071 439.701 58.8153 440.033 58.6804C440.366 58.5431 440.751 58.4744 441.187 58.4744C441.826 58.4744 442.329 58.6106 442.696 58.8828C443.065 59.1551 443.294 59.5232 443.381 59.9872ZM445.93 62.2884L445.927 60.7365H446.133L448.093 58.5455H449.595L447.184 61.2301H446.918L445.93 62.2884ZM444.759 64V56.7273H446.044V64H444.759ZM448.182 64L446.406 61.5178L447.273 60.6122L449.719 64H448.182Z" fill="black" fill-opacity="0.8"/>
<path d="M187 41L611.446 41" stroke="#64C7DB" stroke-width="9" stroke-linecap="round"/>
<line x1="4.5" y1="-4.5" x2="26.2044" y2="-4.5" transform="matrix(0.729537 0.683941 -0.632535 0.774532 598.6 25)" stroke="#64C7DB" stroke-width="9" stroke-linecap="round"/>
<line x1="4.5" y1="-4.5" x2="27.5694" y2="-4.5" transform="matrix(-0.727589 0.686013 -0.634695 -0.772762 621 35)" stroke="#64C7DB" stroke-width="9" stroke-linecap="round"/>
</svg>
