<svg width="1170" height="104" viewBox="0 0 1170 104" fill="none" xmlns="http://www.w3.org/2000/svg">
<rect width="1170" height="104" fill="white"/>
<path d="M148 65H918" stroke="#64C7DB" stroke-width="9" stroke-linecap="round"/>
<line x1="900.21" y1="47.6107" x2="925.714" y2="63.7895" stroke="#64C7DB" stroke-width="9" stroke-linecap="round"/>
<line x1="928.331" y1="65.8763" x2="897.876" y2="78.4433" stroke="#64C7DB" stroke-width="9" stroke-linecap="round"/>
<path d="M164.122 39.7273H165.223V44.5107C165.223 45.0196 165.104 45.4706 164.865 45.8636C164.625 46.2543 164.289 46.562 163.856 46.7869C163.423 47.0095 162.915 47.1207 162.333 47.1207C161.753 47.1207 161.246 47.0095 160.813 46.7869C160.379 46.562 160.043 46.2543 159.804 45.8636C159.565 45.4706 159.445 45.0196 159.445 44.5107V39.7273H160.543V44.4219C160.543 44.7509 160.615 45.0433 160.759 45.299C160.906 45.5547 161.113 45.7559 161.381 45.9027C161.648 46.0471 161.966 46.1193 162.333 46.1193C162.702 46.1193 163.02 46.0471 163.288 45.9027C163.558 45.7559 163.764 45.5547 163.906 45.299C164.05 45.0433 164.122 44.7509 164.122 44.4219V39.7273ZM166.733 49.0455V41.5455H167.77V42.4297H167.859C167.921 42.3161 168.009 42.1847 168.125 42.0355C168.241 41.8864 168.402 41.7562 168.608 41.6449C168.814 41.5312 169.087 41.4744 169.425 41.4744C169.865 41.4744 170.258 41.5857 170.604 41.8082C170.95 42.0308 171.221 42.3516 171.417 42.7706C171.616 43.1896 171.716 43.6939 171.716 44.2834C171.716 44.8729 171.617 45.3783 171.421 45.7997C171.224 46.2187 170.954 46.5419 170.611 46.7692C170.268 46.9941 169.876 47.1065 169.436 47.1065C169.104 47.1065 168.833 47.0509 168.623 46.9396C168.414 46.8284 168.251 46.6982 168.132 46.549C168.014 46.3999 167.923 46.2673 167.859 46.1513H167.795V49.0455H166.733ZM167.774 44.2727C167.774 44.6562 167.829 44.9924 167.941 45.2812C168.052 45.5701 168.213 45.7962 168.424 45.9595C168.634 46.1205 168.892 46.201 169.198 46.201C169.515 46.201 169.78 46.117 169.993 45.9489C170.206 45.7784 170.367 45.5476 170.476 45.2564C170.587 44.9652 170.643 44.6373 170.643 44.2727C170.643 43.9129 170.589 43.5897 170.48 43.3033C170.373 43.0168 170.212 42.7907 169.997 42.625C169.784 42.4593 169.517 42.3764 169.198 42.3764C168.89 42.3764 168.63 42.4557 168.417 42.6143C168.206 42.773 168.046 42.9943 167.937 43.2784C167.828 43.5625 167.774 43.8939 167.774 44.2727ZM179.639 42.8771L178.677 43.0476C178.636 42.9245 178.573 42.8073 178.485 42.696C178.4 42.5848 178.284 42.4936 178.137 42.4226C177.99 42.3516 177.807 42.3161 177.586 42.3161C177.286 42.3161 177.035 42.3835 176.834 42.5185C176.632 42.651 176.532 42.8227 176.532 43.0334C176.532 43.2157 176.599 43.3625 176.734 43.4737C176.869 43.585 177.087 43.6761 177.388 43.7472L178.254 43.946C178.756 44.062 179.13 44.2408 179.376 44.4822C179.622 44.7237 179.746 45.0374 179.746 45.4233C179.746 45.75 179.651 46.0412 179.461 46.2969C179.274 46.5502 179.013 46.7491 178.677 46.8935C178.343 47.0379 177.956 47.1101 177.515 47.1101C176.905 47.1101 176.406 46.9799 176.02 46.7195C175.635 46.4567 175.398 46.0838 175.31 45.6009L176.336 45.4446C176.4 45.7121 176.532 45.9145 176.731 46.0518C176.93 46.1868 177.189 46.2543 177.508 46.2543C177.856 46.2543 178.135 46.1821 178.343 46.0376C178.551 45.8909 178.655 45.7121 178.655 45.5014C178.655 45.331 178.591 45.1877 178.464 45.0717C178.338 44.9557 178.145 44.8681 177.885 44.8089L176.961 44.6065C176.452 44.4905 176.076 44.3059 175.832 44.0526C175.591 43.7992 175.47 43.4785 175.47 43.0902C175.47 42.7682 175.56 42.4865 175.74 42.245C175.92 42.0036 176.168 41.8153 176.486 41.6804C176.803 41.5431 177.166 41.4744 177.576 41.4744C178.165 41.4744 178.629 41.6023 178.968 41.858C179.306 42.1113 179.53 42.451 179.639 42.8771ZM183.459 41.5455V42.3977H180.48V41.5455H183.459ZM181.279 40.2386H182.341V45.3984C182.341 45.6044 182.371 45.7595 182.433 45.8636C182.494 45.9654 182.574 46.0353 182.671 46.0732C182.77 46.1087 182.878 46.1264 182.994 46.1264C183.079 46.1264 183.154 46.1205 183.218 46.1087C183.282 46.0968 183.331 46.0874 183.367 46.0803L183.559 46.9574C183.497 46.9811 183.409 47.0047 183.296 47.0284C183.182 47.0545 183.04 47.0687 182.87 47.071C182.59 47.0758 182.33 47.026 182.088 46.9219C181.847 46.8177 181.652 46.6567 181.502 46.4389C181.353 46.2211 181.279 45.9477 181.279 45.6186V40.2386ZM184.634 47V41.5455H185.66V42.4119H185.717C185.816 42.1184 185.991 41.8875 186.242 41.7195C186.496 41.549 186.782 41.4638 187.102 41.4638C187.168 41.4638 187.246 41.4661 187.336 41.4709C187.428 41.4756 187.501 41.4815 187.553 41.4886V42.5043C187.51 42.4924 187.434 42.4794 187.325 42.4652C187.217 42.4486 187.108 42.4403 186.999 42.4403C186.748 42.4403 186.524 42.4936 186.328 42.6001C186.133 42.7043 185.98 42.8499 185.866 43.0369C185.752 43.2216 185.695 43.4323 185.695 43.669V47H184.634ZM190.627 47.1101C190.09 47.1101 189.627 46.9953 189.239 46.7656C188.853 46.5336 188.554 46.2081 188.344 45.7891C188.135 45.3677 188.031 44.8741 188.031 44.3082C188.031 43.7495 188.135 43.2571 188.344 42.831C188.554 42.4048 188.848 42.0722 189.224 41.8331C189.603 41.594 190.046 41.4744 190.553 41.4744C190.86 41.4744 191.159 41.5253 191.447 41.6271C191.736 41.7289 191.996 41.8887 192.225 42.1065C192.455 42.3243 192.636 42.6072 192.768 42.9553C192.901 43.3009 192.967 43.7211 192.967 44.2159V44.5923H188.631V43.7969H191.927C191.927 43.5175 191.87 43.2701 191.756 43.0547C191.643 42.8369 191.483 42.6652 191.277 42.5398C191.073 42.4143 190.834 42.3516 190.56 42.3516C190.261 42.3516 190.001 42.425 189.778 42.5717C189.558 42.7161 189.388 42.9055 189.267 43.1399C189.149 43.3719 189.089 43.6241 189.089 43.8963V44.5178C189.089 44.8823 189.153 45.1925 189.281 45.4482C189.411 45.7038 189.593 45.8991 189.825 46.0341C190.057 46.1667 190.328 46.233 190.638 46.233C190.839 46.233 191.022 46.2045 191.188 46.1477C191.354 46.0885 191.497 46.0009 191.618 45.8849C191.739 45.7689 191.831 45.6257 191.895 45.4553L192.9 45.6364C192.819 45.9323 192.675 46.1915 192.467 46.4141C192.261 46.6342 192.001 46.8059 191.689 46.929C191.379 47.0497 191.025 47.1101 190.627 47.1101ZM195.733 47.1207C195.387 47.1207 195.075 47.0568 194.795 46.929C194.516 46.7988 194.295 46.6106 194.131 46.3643C193.97 46.1181 193.89 45.8163 193.89 45.4588C193.89 45.151 193.949 44.8977 194.067 44.6989C194.186 44.5 194.345 44.3426 194.547 44.2266C194.748 44.1106 194.973 44.023 195.221 43.9638C195.47 43.9046 195.723 43.8596 195.981 43.8288C196.308 43.791 196.573 43.7602 196.777 43.7365C196.98 43.7105 197.128 43.669 197.221 43.6122C197.313 43.5554 197.359 43.4631 197.359 43.3352V43.3104C197.359 43.0002 197.272 42.7599 197.096 42.5895C196.924 42.419 196.666 42.3338 196.322 42.3338C195.965 42.3338 195.683 42.4131 195.477 42.5717C195.273 42.728 195.133 42.902 195.055 43.0938L194.057 42.8665C194.175 42.535 194.348 42.2675 194.575 42.0639C194.805 41.858 195.069 41.7088 195.367 41.6165C195.665 41.5218 195.979 41.4744 196.308 41.4744C196.526 41.4744 196.757 41.5005 197.001 41.5526C197.247 41.6023 197.476 41.6946 197.689 41.8295C197.905 41.9645 198.081 42.1574 198.219 42.4084C198.356 42.657 198.425 42.9801 198.425 43.3778V47H197.388V46.2543H197.345C197.276 46.3916 197.173 46.5265 197.036 46.6591C196.899 46.7917 196.722 46.9018 196.507 46.9893C196.291 47.0769 196.033 47.1207 195.733 47.1207ZM195.964 46.2685C196.257 46.2685 196.508 46.2105 196.716 46.0945C196.927 45.9785 197.087 45.8269 197.196 45.6399C197.307 45.4505 197.363 45.2481 197.363 45.0327V44.3295C197.325 44.3674 197.251 44.4029 197.143 44.4361C197.036 44.4669 196.914 44.4941 196.777 44.5178C196.64 44.5391 196.506 44.5592 196.376 44.5781C196.245 44.5947 196.136 44.6089 196.049 44.6207C195.843 44.6468 195.655 44.6906 195.484 44.7521C195.316 44.8137 195.181 44.9025 195.079 45.0185C194.98 45.1321 194.93 45.2836 194.93 45.473C194.93 45.7358 195.027 45.9347 195.221 46.0696C195.416 46.2022 195.663 46.2685 195.964 46.2685ZM199.839 47V41.5455H200.858V42.4332H200.925C201.039 42.1326 201.225 41.8982 201.483 41.7301C201.741 41.5597 202.05 41.4744 202.41 41.4744C202.774 41.4744 203.08 41.5597 203.326 41.7301C203.575 41.9006 203.758 42.1349 203.876 42.4332H203.933C204.063 42.142 204.271 41.91 204.555 41.7372C204.839 41.562 205.177 41.4744 205.57 41.4744C206.065 41.4744 206.469 41.6295 206.781 41.9396C207.096 42.2498 207.254 42.7173 207.254 43.3423V47H206.192V43.4418C206.192 43.0724 206.091 42.8049 205.89 42.6392C205.689 42.4735 205.448 42.3906 205.169 42.3906C204.823 42.3906 204.555 42.4972 204.363 42.7102C204.171 42.9209 204.075 43.192 204.075 43.5234V47H203.017V43.3743C203.017 43.0784 202.925 42.8404 202.74 42.6605C202.555 42.4806 202.315 42.3906 202.019 42.3906C201.818 42.3906 201.632 42.4439 201.462 42.5504C201.294 42.6546 201.157 42.8002 201.053 42.9872C200.951 43.1742 200.901 43.3909 200.901 43.6371V47H199.839ZM211.408 47V39.7273H212.506V42.8878H216.131V39.7273H217.232V47H216.131V43.8288H212.506V47H211.408ZM221.096 47.1101C220.558 47.1101 220.096 46.9953 219.707 46.7656C219.321 46.5336 219.023 46.2081 218.812 45.7891C218.604 45.3677 218.5 44.8741 218.5 44.3082C218.5 43.7495 218.604 43.2571 218.812 42.831C219.023 42.4048 219.317 42.0722 219.693 41.8331C220.072 41.594 220.515 41.4744 221.021 41.4744C221.329 41.4744 221.627 41.5253 221.916 41.6271C222.205 41.7289 222.464 41.8887 222.694 42.1065C222.924 42.3243 223.105 42.6072 223.237 42.9553C223.37 43.3009 223.436 43.7211 223.436 44.2159V44.5923H219.1V43.7969H222.396C222.396 43.5175 222.339 43.2701 222.225 43.0547C222.112 42.8369 221.952 42.6652 221.746 42.5398C221.542 42.4143 221.303 42.3516 221.028 42.3516C220.73 42.3516 220.47 42.425 220.247 42.5717C220.027 42.7161 219.857 42.9055 219.736 43.1399C219.617 43.3719 219.558 43.6241 219.558 43.8963V44.5178C219.558 44.8823 219.622 45.1925 219.75 45.4482C219.88 45.7038 220.061 45.8991 220.293 46.0341C220.525 46.1667 220.796 46.233 221.107 46.233C221.308 46.233 221.491 46.2045 221.657 46.1477C221.823 46.0885 221.966 46.0009 222.087 45.8849C222.207 45.7689 222.3 45.6257 222.364 45.4553L223.369 45.6364C223.288 45.9323 223.144 46.1915 222.935 46.4141C222.729 46.6342 222.47 46.8059 222.158 46.929C221.848 47.0497 221.494 47.1101 221.096 47.1101ZM226.202 47.1207C225.856 47.1207 225.543 47.0568 225.264 46.929C224.985 46.7988 224.763 46.6106 224.6 46.3643C224.439 46.1181 224.358 45.8163 224.358 45.4588C224.358 45.151 224.418 44.8977 224.536 44.6989C224.654 44.5 224.814 44.3426 225.015 44.2266C225.217 44.1106 225.442 44.023 225.69 43.9638C225.939 43.9046 226.192 43.8596 226.45 43.8288C226.777 43.791 227.042 43.7602 227.246 43.7365C227.449 43.7105 227.597 43.669 227.689 43.6122C227.782 43.5554 227.828 43.4631 227.828 43.3352V43.3104C227.828 43.0002 227.74 42.7599 227.565 42.5895C227.392 42.419 227.134 42.3338 226.791 42.3338C226.434 42.3338 226.152 42.4131 225.946 42.5717C225.742 42.728 225.601 42.902 225.523 43.0938L224.525 42.8665C224.644 42.535 224.817 42.2675 225.044 42.0639C225.273 41.858 225.537 41.7088 225.836 41.6165C226.134 41.5218 226.448 41.4744 226.777 41.4744C226.995 41.4744 227.225 41.5005 227.469 41.5526C227.715 41.6023 227.945 41.6946 228.158 41.8295C228.374 41.9645 228.55 42.1574 228.687 42.4084C228.825 42.657 228.893 42.9801 228.893 43.3778V47H227.856V46.2543H227.814C227.745 46.3916 227.642 46.5265 227.505 46.6591C227.367 46.7917 227.191 46.9018 226.976 46.9893C226.76 47.0769 226.502 47.1207 226.202 47.1207ZM226.432 46.2685C226.726 46.2685 226.977 46.2105 227.185 46.0945C227.396 45.9785 227.556 45.8269 227.665 45.6399C227.776 45.4505 227.831 45.2481 227.831 45.0327V44.3295C227.794 44.3674 227.72 44.4029 227.611 44.4361C227.505 44.4669 227.383 44.4941 227.246 44.5178C227.108 44.5391 226.974 44.5592 226.844 44.5781C226.714 44.5947 226.605 44.6089 226.518 44.6207C226.312 44.6468 226.123 44.6906 225.953 44.7521C225.785 44.8137 225.65 44.9025 225.548 45.0185C225.449 45.1321 225.399 45.2836 225.399 45.473C225.399 45.7358 225.496 45.9347 225.69 46.0696C225.884 46.2022 226.132 46.2685 226.432 46.2685ZM231.369 39.7273V47H230.308V39.7273H231.369ZM235.344 41.5455V42.3977H232.365V41.5455H235.344ZM233.164 40.2386H234.225V45.3984C234.225 45.6044 234.256 45.7595 234.318 45.8636C234.379 45.9654 234.459 46.0353 234.556 46.0732C234.655 46.1087 234.763 46.1264 234.879 46.1264C234.964 46.1264 235.039 46.1205 235.102 46.1087C235.166 46.0968 235.216 46.0874 235.252 46.0803L235.443 46.9574C235.382 46.9811 235.294 47.0047 235.181 47.0284C235.067 47.0545 234.925 47.0687 234.754 47.071C234.475 47.0758 234.215 47.026 233.973 46.9219C233.732 46.8177 233.536 46.6567 233.387 46.4389C233.238 46.2211 233.164 45.9477 233.164 45.6186V40.2386ZM237.697 43.7614V47H236.636V39.7273H237.683V42.4332H237.751C237.879 42.1397 238.074 41.9065 238.337 41.7337C238.599 41.5608 238.943 41.4744 239.366 41.4744C239.741 41.4744 240.067 41.5514 240.347 41.7053C240.628 41.8591 240.846 42.0888 241 42.3942C241.156 42.6972 241.234 43.076 241.234 43.5305V47H240.173V43.6584C240.173 43.2583 240.07 42.9482 239.864 42.728C239.658 42.5054 239.371 42.3942 239.004 42.3942C238.753 42.3942 238.528 42.4474 238.33 42.554C238.133 42.6605 237.978 42.8168 237.864 43.0227C237.753 43.2263 237.697 43.4725 237.697 43.7614ZM247.737 47H245.383V39.7273H247.812C248.525 39.7273 249.137 39.8729 249.648 40.1641C250.159 40.4529 250.551 40.8684 250.823 41.4105C251.098 41.9503 251.235 42.5978 251.235 43.353C251.235 44.1106 251.097 44.7616 250.82 45.3061C250.545 45.8506 250.147 46.2696 249.627 46.5632C249.106 46.8544 248.476 47 247.737 47ZM246.48 46.0412H247.677C248.231 46.0412 248.691 45.937 249.058 45.7287C249.425 45.518 249.7 45.2138 249.882 44.8161C250.065 44.416 250.156 43.9283 250.156 43.353C250.156 42.7824 250.065 42.2983 249.882 41.9006C249.702 41.5028 249.434 41.201 249.076 40.995C248.719 40.7891 248.275 40.6861 247.744 40.6861H246.48V46.0412ZM254.865 47.1101C254.328 47.1101 253.865 46.9953 253.477 46.7656C253.091 46.5336 252.793 46.2081 252.582 45.7891C252.374 45.3677 252.27 44.8741 252.27 44.3082C252.27 43.7495 252.374 43.2571 252.582 42.831C252.793 42.4048 253.086 42.0722 253.463 41.8331C253.842 41.594 254.284 41.4744 254.791 41.4744C255.099 41.4744 255.397 41.5253 255.686 41.6271C255.975 41.7289 256.234 41.8887 256.463 42.1065C256.693 42.3243 256.874 42.6072 257.007 42.9553C257.139 43.3009 257.206 43.7211 257.206 44.2159V44.5923H252.87V43.7969H256.165C256.165 43.5175 256.108 43.2701 255.995 43.0547C255.881 42.8369 255.721 42.6652 255.515 42.5398C255.312 42.4143 255.073 42.3516 254.798 42.3516C254.5 42.3516 254.239 42.425 254.017 42.5717C253.797 42.7161 253.626 42.9055 253.505 43.1399C253.387 43.3719 253.328 43.6241 253.328 43.8963V44.5178C253.328 44.8823 253.392 45.1925 253.52 45.4482C253.65 45.7038 253.831 45.8991 254.063 46.0341C254.295 46.1667 254.566 46.233 254.876 46.233C255.077 46.233 255.261 46.2045 255.426 46.1477C255.592 46.0885 255.735 46.0009 255.856 45.8849C255.977 45.7689 256.069 45.6257 256.133 45.4553L257.138 45.6364C257.058 45.9323 256.913 46.1915 256.705 46.4141C256.499 46.6342 256.24 46.8059 255.927 46.929C255.617 47.0497 255.263 47.1101 254.865 47.1101ZM260.93 41.5455V42.3977H257.95V41.5455H260.93ZM258.749 40.2386H259.811V45.3984C259.811 45.6044 259.842 45.7595 259.904 45.8636C259.965 45.9654 260.044 46.0353 260.142 46.0732C260.241 46.1087 260.349 46.1264 260.465 46.1264C260.55 46.1264 260.624 46.1205 260.688 46.1087C260.752 46.0968 260.802 46.0874 260.838 46.0803L261.029 46.9574C260.968 46.9811 260.88 47.0047 260.767 47.0284C260.653 47.0545 260.511 47.0687 260.34 47.071C260.061 47.0758 259.801 47.026 259.559 46.9219C259.318 46.8177 259.122 46.6567 258.973 46.4389C258.824 46.2211 258.749 45.9477 258.749 45.6186V40.2386ZM264.397 47.1101C263.859 47.1101 263.396 46.9953 263.008 46.7656C262.622 46.5336 262.324 46.2081 262.113 45.7891C261.905 45.3677 261.801 44.8741 261.801 44.3082C261.801 43.7495 261.905 43.2571 262.113 42.831C262.324 42.4048 262.618 42.0722 262.994 41.8331C263.373 41.594 263.815 41.4744 264.322 41.4744C264.63 41.4744 264.928 41.5253 265.217 41.6271C265.506 41.7289 265.765 41.8887 265.995 42.1065C266.224 42.3243 266.405 42.6072 266.538 42.9553C266.671 43.3009 266.737 43.7211 266.737 44.2159V44.5923H262.401V43.7969H265.696C265.696 43.5175 265.64 43.2701 265.526 43.0547C265.412 42.8369 265.252 42.6652 265.047 42.5398C264.843 42.4143 264.604 42.3516 264.329 42.3516C264.031 42.3516 263.77 42.425 263.548 42.5717C263.328 42.7161 263.157 42.9055 263.037 43.1399C262.918 43.3719 262.859 43.6241 262.859 43.8963V44.5178C262.859 44.8823 262.923 45.1925 263.051 45.4482C263.181 45.7038 263.362 45.8991 263.594 46.0341C263.826 46.1667 264.097 46.233 264.407 46.233C264.609 46.233 264.792 46.2045 264.958 46.1477C265.123 46.0885 265.267 46.0009 265.387 45.8849C265.508 45.7689 265.6 45.6257 265.664 45.4553L266.669 45.6364C266.589 45.9323 266.444 46.1915 266.236 46.4141C266.03 46.6342 265.771 46.8059 265.458 46.929C265.148 47.0497 264.794 47.1101 264.397 47.1101ZM267.915 47V41.5455H268.941V42.4119H268.998C269.097 42.1184 269.273 41.8875 269.524 41.7195C269.777 41.549 270.063 41.4638 270.383 41.4638C270.449 41.4638 270.527 41.4661 270.617 41.4709C270.71 41.4756 270.782 41.4815 270.834 41.4886V42.5043C270.791 42.4924 270.716 42.4794 270.607 42.4652C270.498 42.4486 270.389 42.4403 270.28 42.4403C270.029 42.4403 269.805 42.4936 269.609 42.6001C269.415 42.7043 269.261 42.8499 269.147 43.0369C269.034 43.2216 268.977 43.4323 268.977 43.669V47H267.915ZM271.753 47V41.5455H272.772V42.4332H272.839C272.953 42.1326 273.139 41.8982 273.397 41.7301C273.655 41.5597 273.964 41.4744 274.324 41.4744C274.688 41.4744 274.994 41.5597 275.24 41.7301C275.489 41.9006 275.672 42.1349 275.79 42.4332H275.847C275.978 42.142 276.185 41.91 276.469 41.7372C276.753 41.562 277.091 41.4744 277.484 41.4744C277.979 41.4744 278.383 41.6295 278.695 41.9396C279.01 42.2498 279.168 42.7173 279.168 43.3423V47H278.106V43.4418C278.106 43.0724 278.005 42.8049 277.804 42.6392C277.603 42.4735 277.362 42.3906 277.083 42.3906C276.737 42.3906 276.469 42.4972 276.277 42.7102C276.085 42.9209 275.989 43.192 275.989 43.5234V47H274.931V43.3743C274.931 43.0784 274.839 42.8404 274.654 42.6605C274.469 42.4806 274.229 42.3906 273.933 42.3906C273.732 42.3906 273.546 42.4439 273.376 42.5504C273.208 42.6546 273.071 42.8002 272.967 42.9872C272.866 43.1742 272.815 43.3909 272.815 43.6371V47H271.753ZM280.591 47V41.5455H281.653V47H280.591ZM281.127 40.7038C280.942 40.7038 280.784 40.6423 280.651 40.5192C280.521 40.3937 280.456 40.2446 280.456 40.0717C280.456 39.8965 280.521 39.7474 280.651 39.6243C280.784 39.4988 280.942 39.4361 281.127 39.4361C281.312 39.4361 281.469 39.4988 281.599 39.6243C281.732 39.7474 281.798 39.8965 281.798 40.0717C281.798 40.2446 281.732 40.3937 281.599 40.5192C281.469 40.6423 281.312 40.7038 281.127 40.7038ZM284.143 43.7614V47H283.081V41.5455H284.1V42.4332H284.168C284.293 42.1444 284.49 41.9124 284.757 41.7372C285.027 41.562 285.367 41.4744 285.776 41.4744C286.148 41.4744 286.473 41.5526 286.753 41.7088C287.032 41.8627 287.249 42.0923 287.403 42.3977C287.557 42.7031 287.634 43.0807 287.634 43.5305V47H286.572V43.6584C286.572 43.263 286.469 42.9541 286.263 42.7315C286.057 42.5066 285.774 42.3942 285.414 42.3942C285.168 42.3942 284.949 42.4474 284.757 42.554C284.568 42.6605 284.417 42.8168 284.306 43.0227C284.197 43.2263 284.143 43.4725 284.143 43.7614ZM290.645 47.1207C290.299 47.1207 289.987 47.0568 289.707 46.929C289.428 46.7988 289.207 46.6106 289.043 46.3643C288.882 46.1181 288.802 45.8163 288.802 45.4588C288.802 45.151 288.861 44.8977 288.979 44.6989C289.098 44.5 289.258 44.3426 289.459 44.2266C289.66 44.1106 289.885 44.023 290.134 43.9638C290.382 43.9046 290.635 43.8596 290.893 43.8288C291.22 43.791 291.485 43.7602 291.689 43.7365C291.893 43.7105 292.04 43.669 292.133 43.6122C292.225 43.5554 292.271 43.4631 292.271 43.3352V43.3104C292.271 43.0002 292.184 42.7599 292.009 42.5895C291.836 42.419 291.578 42.3338 291.234 42.3338C290.877 42.3338 290.595 42.4131 290.389 42.5717C290.186 42.728 290.045 42.902 289.967 43.0938L288.969 42.8665C289.087 42.535 289.26 42.2675 289.487 42.0639C289.717 41.858 289.981 41.7088 290.279 41.6165C290.577 41.5218 290.891 41.4744 291.22 41.4744C291.438 41.4744 291.669 41.5005 291.913 41.5526C292.159 41.6023 292.388 41.6946 292.602 41.8295C292.817 41.9645 292.993 42.1574 293.131 42.4084C293.268 42.657 293.337 42.9801 293.337 43.3778V47H292.3V46.2543H292.257C292.188 46.3916 292.085 46.5265 291.948 46.6591C291.811 46.7917 291.634 46.9018 291.419 46.9893C291.204 47.0769 290.946 47.1207 290.645 47.1207ZM290.876 46.2685C291.169 46.2685 291.42 46.2105 291.629 46.0945C291.839 45.9785 291.999 45.8269 292.108 45.6399C292.219 45.4505 292.275 45.2481 292.275 45.0327V44.3295C292.237 44.3674 292.164 44.4029 292.055 44.4361C291.948 44.4669 291.826 44.4941 291.689 44.5178C291.552 44.5391 291.418 44.5592 291.288 44.5781C291.157 44.5947 291.049 44.6089 290.961 44.6207C290.755 44.6468 290.567 44.6906 290.396 44.7521C290.228 44.8137 290.093 44.9025 289.991 45.0185C289.892 45.1321 289.842 45.2836 289.842 45.473C289.842 45.7358 289.939 45.9347 290.134 46.0696C290.328 46.2022 290.575 46.2685 290.876 46.2685ZM295.813 43.7614V47H294.751V41.5455H295.77V42.4332H295.838C295.963 42.1444 296.16 41.9124 296.427 41.7372C296.697 41.562 297.037 41.4744 297.446 41.4744C297.818 41.4744 298.143 41.5526 298.423 41.7088C298.702 41.8627 298.919 42.0923 299.073 42.3977C299.227 42.7031 299.303 43.0807 299.303 43.5305V47H298.242V43.6584C298.242 43.263 298.139 42.9541 297.933 42.7315C297.727 42.5066 297.444 42.3942 297.084 42.3942C296.838 42.3942 296.619 42.4474 296.427 42.554C296.238 42.6605 296.087 42.8168 295.976 43.0227C295.867 43.2263 295.813 43.4725 295.813 43.7614ZM303.274 41.5455V42.3977H300.294V41.5455H303.274ZM301.093 40.2386H302.155V45.3984C302.155 45.6044 302.186 45.7595 302.247 45.8636C302.309 45.9654 302.388 46.0353 302.485 46.0732C302.585 46.1087 302.692 46.1264 302.808 46.1264C302.894 46.1264 302.968 46.1205 303.032 46.1087C303.096 46.0968 303.146 46.0874 303.181 46.0803L303.373 46.9574C303.311 46.9811 303.224 47.0047 303.11 47.0284C302.997 47.0545 302.855 47.0687 302.684 47.071C302.405 47.0758 302.144 47.026 301.903 46.9219C301.661 46.8177 301.466 46.6567 301.317 46.4389C301.168 46.2211 301.093 45.9477 301.093 45.6186V40.2386ZM308.448 42.8771L307.485 43.0476C307.445 42.9245 307.381 42.8073 307.294 42.696C307.208 42.5848 307.092 42.4936 306.945 42.4226C306.799 42.3516 306.615 42.3161 306.395 42.3161C306.094 42.3161 305.843 42.3835 305.642 42.5185C305.441 42.651 305.34 42.8227 305.34 43.0334C305.34 43.2157 305.408 43.3625 305.543 43.4737C305.678 43.585 305.896 43.6761 306.196 43.7472L307.063 43.946C307.565 44.062 307.939 44.2408 308.185 44.4822C308.431 44.7237 308.554 45.0374 308.554 45.4233C308.554 45.75 308.459 46.0412 308.27 46.2969C308.083 46.5502 307.821 46.7491 307.485 46.8935C307.151 47.0379 306.764 47.1101 306.324 47.1101C305.713 47.1101 305.215 46.9799 304.829 46.7195C304.443 46.4567 304.206 46.0838 304.119 45.6009L305.145 45.4446C305.209 45.7121 305.34 45.9145 305.539 46.0518C305.738 46.1868 305.997 46.2543 306.317 46.2543C306.665 46.2543 306.943 46.1821 307.151 46.0376C307.36 45.8909 307.464 45.7121 307.464 45.5014C307.464 45.331 307.4 45.1877 307.272 45.0717C307.147 44.9557 306.954 44.8681 306.693 44.8089L305.77 44.6065C305.261 44.4905 304.885 44.3059 304.641 44.0526C304.399 43.7992 304.279 43.4785 304.279 43.0902C304.279 42.7682 304.369 42.4865 304.548 42.245C304.728 42.0036 304.977 41.8153 305.294 41.6804C305.611 41.5431 305.975 41.4744 306.384 41.4744C306.974 41.4744 307.438 41.6023 307.776 41.858C308.115 42.1113 308.339 42.451 308.448 42.8771Z" fill="black" fill-opacity="0.8"/>
<path d="M792.028 33.6378C791.99 33.3016 791.834 33.0412 791.56 32.8565C791.285 32.6695 790.939 32.576 790.523 32.576C790.224 32.576 789.966 32.6233 789.748 32.718C789.531 32.8104 789.361 32.9382 789.241 33.1016C789.122 33.2625 789.063 33.446 789.063 33.652C789.063 33.8248 789.103 33.974 789.184 34.0994C789.267 34.2249 789.374 34.3303 789.507 34.4155C789.642 34.4983 789.786 34.5682 789.94 34.625C790.094 34.6795 790.242 34.7244 790.384 34.7599L791.094 34.9446C791.326 35.0014 791.564 35.0784 791.808 35.1754C792.052 35.2725 792.278 35.4003 792.486 35.5589C792.695 35.7176 792.863 35.9141 792.991 36.1484C793.121 36.3828 793.186 36.6634 793.186 36.9901C793.186 37.402 793.079 37.7678 792.866 38.0874C792.656 38.407 792.349 38.6591 791.947 38.8438C791.547 39.0284 791.062 39.1207 790.494 39.1207C789.95 39.1207 789.479 39.0343 789.081 38.8615C788.683 38.6887 788.372 38.4437 788.147 38.1264C787.922 37.8068 787.798 37.428 787.774 36.9901H788.875C788.896 37.2528 788.981 37.4718 789.131 37.647C789.282 37.8198 789.475 37.9489 789.709 38.0341C789.946 38.117 790.205 38.1584 790.487 38.1584C790.797 38.1584 791.073 38.1098 791.315 38.0128C791.558 37.9134 791.75 37.776 791.89 37.6009C792.03 37.4233 792.099 37.2161 792.099 36.9794C792.099 36.764 792.038 36.5876 791.915 36.4503C791.794 36.313 791.629 36.1993 791.421 36.1094C791.215 36.0194 790.982 35.9401 790.722 35.8714L789.862 35.6371C789.28 35.4785 788.818 35.2453 788.477 34.9375C788.139 34.6297 787.969 34.2225 787.969 33.7159C787.969 33.2969 788.083 32.9311 788.31 32.6186C788.538 32.3061 788.845 32.0634 789.234 31.8906C789.622 31.7154 790.06 31.6278 790.547 31.6278C791.04 31.6278 791.474 31.7143 791.851 31.8871C792.23 32.0599 792.528 32.2978 792.746 32.6009C792.963 32.9015 793.077 33.2472 793.087 33.6378H792.028ZM796.763 39.1101C796.225 39.1101 795.763 38.9953 795.374 38.7656C794.988 38.5336 794.69 38.2081 794.479 37.7891C794.271 37.3677 794.167 36.8741 794.167 36.3082C794.167 35.7495 794.271 35.2571 794.479 34.831C794.69 34.4048 794.984 34.0722 795.36 33.8331C795.739 33.594 796.182 33.4744 796.688 33.4744C796.996 33.4744 797.294 33.5253 797.583 33.6271C797.872 33.7289 798.131 33.8887 798.361 34.1065C798.591 34.3243 798.772 34.6072 798.904 34.9553C799.037 35.3009 799.103 35.7211 799.103 36.2159V36.5923H794.767V35.7969H798.063C798.063 35.5175 798.006 35.2701 797.892 35.0547C797.778 34.8369 797.619 34.6652 797.413 34.5398C797.209 34.4143 796.97 34.3516 796.695 34.3516C796.397 34.3516 796.137 34.425 795.914 34.5717C795.694 34.7161 795.524 34.9055 795.403 35.1399C795.284 35.3719 795.225 35.6241 795.225 35.8963V36.5178C795.225 36.8823 795.289 37.1925 795.417 37.4482C795.547 37.7038 795.728 37.8991 795.96 38.0341C796.192 38.1667 796.463 38.233 796.774 38.233C796.975 38.233 797.158 38.2045 797.324 38.1477C797.49 38.0885 797.633 38.0009 797.754 37.8849C797.874 37.7689 797.967 37.6257 798.031 37.4553L799.036 37.6364C798.955 37.9323 798.811 38.1915 798.602 38.4141C798.396 38.6342 798.137 38.8059 797.825 38.929C797.515 39.0497 797.161 39.1101 796.763 39.1101ZM800.281 39V33.5455H801.307V34.4119H801.364C801.464 34.1184 801.639 33.8875 801.89 33.7195C802.143 33.549 802.43 33.4638 802.749 33.4638C802.815 33.4638 802.894 33.4661 802.984 33.4709C803.076 33.4756 803.148 33.4815 803.2 33.4886V34.5043C803.158 34.4924 803.082 34.4794 802.973 34.4652C802.864 34.4486 802.755 34.4403 802.646 34.4403C802.395 34.4403 802.172 34.4936 801.975 34.6001C801.781 34.7043 801.627 34.8499 801.513 35.0369C801.4 35.2216 801.343 35.4323 801.343 35.669V39H800.281ZM804.119 39V33.5455H805.181V39H804.119ZM804.655 32.7038C804.471 32.7038 804.312 32.6423 804.179 32.5192C804.049 32.3937 803.984 32.2446 803.984 32.0717C803.984 31.8965 804.049 31.7474 804.179 31.6243C804.312 31.4988 804.471 31.4361 804.655 31.4361C804.84 31.4361 804.997 31.4988 805.128 31.6243C805.26 31.7474 805.326 31.8965 805.326 32.0717C805.326 32.2446 805.26 32.3937 805.128 32.5192C804.997 32.6423 804.84 32.7038 804.655 32.7038ZM808.907 39.1101C808.396 39.1101 807.949 38.9929 807.568 38.7585C807.187 38.5241 806.891 38.1963 806.68 37.7749C806.47 37.3535 806.364 36.861 806.364 36.2976C806.364 35.7318 806.47 35.237 806.68 34.8132C806.891 34.3894 807.187 34.0604 807.568 33.826C807.949 33.5916 808.396 33.4744 808.907 33.4744C809.418 33.4744 809.864 33.5916 810.246 33.826C810.627 34.0604 810.923 34.3894 811.133 34.8132C811.344 35.237 811.449 35.7318 811.449 36.2976C811.449 36.861 811.344 37.3535 811.133 37.7749C810.923 38.1963 810.627 38.5241 810.246 38.7585C809.864 38.9929 809.418 39.1101 808.907 39.1101ZM808.91 38.2188C809.242 38.2188 809.516 38.1312 809.734 37.956C809.952 37.7808 810.113 37.5476 810.217 37.2564C810.324 36.9652 810.377 36.6444 810.377 36.294C810.377 35.946 810.324 35.6264 810.217 35.3352C810.113 35.0417 809.952 34.8061 809.734 34.6286C809.516 34.451 809.242 34.3622 808.91 34.3622C808.577 34.3622 808.3 34.451 808.079 34.6286C807.862 34.8061 807.699 35.0417 807.593 35.3352C807.489 35.6264 807.437 35.946 807.437 36.294C807.437 36.6444 807.489 36.9652 807.593 37.2564C807.699 37.5476 807.862 37.7808 808.079 37.956C808.3 38.1312 808.577 38.2188 808.91 38.2188ZM816.09 36.7379V33.5455H817.155V39H816.111V38.0554H816.054C815.929 38.3466 815.728 38.5893 815.451 38.7834C815.176 38.9751 814.834 39.071 814.424 39.071C814.074 39.071 813.764 38.9941 813.494 38.8402C813.227 38.6839 813.016 38.4531 812.862 38.1477C812.71 37.8423 812.635 37.4647 812.635 37.0149V33.5455H813.696V36.8871C813.696 37.2588 813.799 37.5547 814.005 37.7749C814.211 37.995 814.479 38.1051 814.808 38.1051C815.007 38.1051 815.205 38.0554 815.401 37.956C815.6 37.8565 815.764 37.7062 815.895 37.505C816.027 37.3037 816.092 37.0481 816.09 36.7379ZM822.669 34.8771L821.707 35.0476C821.667 34.9245 821.603 34.8073 821.515 34.696C821.43 34.5848 821.314 34.4936 821.167 34.4226C821.02 34.3516 820.837 34.3161 820.617 34.3161C820.316 34.3161 820.065 34.3835 819.864 34.5185C819.663 34.651 819.562 34.8227 819.562 35.0334C819.562 35.2157 819.63 35.3625 819.764 35.4737C819.899 35.585 820.117 35.6761 820.418 35.7472L821.284 35.946C821.786 36.062 822.16 36.2408 822.407 36.4822C822.653 36.7237 822.776 37.0374 822.776 37.4233C822.776 37.75 822.681 38.0412 822.492 38.2969C822.305 38.5502 822.043 38.7491 821.707 38.8935C821.373 39.0379 820.986 39.1101 820.546 39.1101C819.935 39.1101 819.437 38.9799 819.051 38.7195C818.665 38.4567 818.428 38.0838 818.34 37.6009L819.367 37.4446C819.431 37.7121 819.562 37.9145 819.761 38.0518C819.96 38.1868 820.219 38.2543 820.539 38.2543C820.887 38.2543 821.165 38.1821 821.373 38.0376C821.581 37.8909 821.686 37.7121 821.686 37.5014C821.686 37.331 821.622 37.1877 821.494 37.0717C821.368 36.9557 821.175 36.8681 820.915 36.8089L819.992 36.6065C819.483 36.4905 819.106 36.3059 818.862 36.0526C818.621 35.7992 818.5 35.4785 818.5 35.0902C818.5 34.7682 818.59 34.4865 818.77 34.245C818.95 34.0036 819.199 33.8153 819.516 33.6804C819.833 33.5431 820.197 33.4744 820.606 33.4744C821.196 33.4744 821.66 33.6023 821.998 33.858C822.337 34.1113 822.56 34.451 822.669 34.8771ZM829.029 39H826.675V31.7273H829.104C829.817 31.7273 830.429 31.8729 830.94 32.1641C831.451 32.4529 831.843 32.8684 832.115 33.4105C832.39 33.9503 832.527 34.5978 832.527 35.353C832.527 36.1106 832.389 36.7616 832.112 37.3061C831.837 37.8506 831.439 38.2696 830.919 38.5632C830.398 38.8544 829.768 39 829.029 39ZM827.772 38.0412H828.969C829.523 38.0412 829.983 37.937 830.35 37.7287C830.717 37.518 830.992 37.2138 831.174 36.8161C831.357 36.416 831.448 35.9283 831.448 35.353C831.448 34.7824 831.357 34.2983 831.174 33.9006C830.994 33.5028 830.726 33.201 830.368 32.995C830.011 32.7891 829.567 32.6861 829.036 32.6861H827.772V38.0412ZM833.807 39V33.5455H834.868V39H833.807ZM834.343 32.7038C834.158 32.7038 833.999 32.6423 833.867 32.5192C833.737 32.3937 833.672 32.2446 833.672 32.0717C833.672 31.8965 833.737 31.7474 833.867 31.6243C833.999 31.4988 834.158 31.4361 834.343 31.4361C834.527 31.4361 834.685 31.4988 834.815 31.6243C834.948 31.7474 835.014 31.8965 835.014 32.0717C835.014 32.2446 834.948 32.3937 834.815 32.5192C834.685 32.6423 834.527 32.7038 834.343 32.7038ZM840.384 34.8771L839.422 35.0476C839.382 34.9245 839.318 34.8073 839.23 34.696C839.145 34.5848 839.029 34.4936 838.882 34.4226C838.735 34.3516 838.552 34.3161 838.332 34.3161C838.031 34.3161 837.78 34.3835 837.579 34.5185C837.378 34.651 837.277 34.8227 837.277 35.0334C837.277 35.2157 837.344 35.3625 837.479 35.4737C837.614 35.585 837.832 35.6761 838.133 35.7472L838.999 35.946C839.501 36.062 839.875 36.2408 840.121 36.4822C840.368 36.7237 840.491 37.0374 840.491 37.4233C840.491 37.75 840.396 38.0412 840.207 38.2969C840.02 38.5502 839.758 38.7491 839.422 38.8935C839.088 39.0379 838.701 39.1101 838.261 39.1101C837.65 39.1101 837.151 38.9799 836.766 38.7195C836.38 38.4567 836.143 38.0838 836.055 37.6009L837.082 37.4446C837.146 37.7121 837.277 37.9145 837.476 38.0518C837.675 38.1868 837.934 38.2543 838.253 38.2543C838.601 38.2543 838.88 38.1821 839.088 38.0376C839.296 37.8909 839.4 37.7121 839.4 37.5014C839.4 37.331 839.337 37.1877 839.209 37.0717C839.083 36.9557 838.89 36.8681 838.63 36.8089L837.707 36.6065C837.198 36.4905 836.821 36.3059 836.577 36.0526C836.336 35.7992 836.215 35.4785 836.215 35.0902C836.215 34.7682 836.305 34.4865 836.485 34.245C836.665 34.0036 836.914 33.8153 837.231 33.6804C837.548 33.5431 837.911 33.4744 838.321 33.4744C838.91 33.4744 839.374 33.6023 839.713 33.858C840.052 34.1113 840.275 34.451 840.384 34.8771ZM844.009 39.1101C843.472 39.1101 843.009 38.9953 842.62 38.7656C842.235 38.5336 841.936 38.2081 841.726 37.7891C841.517 37.3677 841.413 36.8741 841.413 36.3082C841.413 35.7495 841.517 35.2571 841.726 34.831C841.936 34.4048 842.23 34.0722 842.606 33.8331C842.985 33.594 843.428 33.4744 843.934 33.4744C844.242 33.4744 844.54 33.5253 844.829 33.6271C845.118 33.7289 845.377 33.8887 845.607 34.1065C845.837 34.3243 846.018 34.6072 846.15 34.9553C846.283 35.3009 846.349 35.7211 846.349 36.2159V36.5923H842.013V35.7969H845.309C845.309 35.5175 845.252 35.2701 845.138 35.0547C845.025 34.8369 844.865 34.6652 844.659 34.5398C844.455 34.4143 844.216 34.3516 843.941 34.3516C843.643 34.3516 843.383 34.425 843.16 34.5717C842.94 34.7161 842.77 34.9055 842.649 35.1399C842.531 35.3719 842.471 35.6241 842.471 35.8963V36.5178C842.471 36.8823 842.535 37.1925 842.663 37.4482C842.793 37.7038 842.974 37.8991 843.206 38.0341C843.438 38.1667 843.709 38.233 844.02 38.233C844.221 38.233 844.404 38.2045 844.57 38.1477C844.736 38.0885 844.879 38.0009 845 37.8849C845.12 37.7689 845.213 37.6257 845.277 37.4553L846.282 37.6364C846.201 37.9323 846.057 38.1915 845.848 38.4141C845.642 38.6342 845.383 38.8059 845.071 38.929C844.761 39.0497 844.407 39.1101 844.009 39.1101ZM849.115 39.1207C848.769 39.1207 848.456 39.0568 848.177 38.929C847.898 38.7988 847.676 38.6106 847.513 38.3643C847.352 38.1181 847.272 37.8163 847.272 37.4588C847.272 37.151 847.331 36.8977 847.449 36.6989C847.568 36.5 847.727 36.3426 847.929 36.2266C848.13 36.1106 848.355 36.023 848.603 35.9638C848.852 35.9046 849.105 35.8596 849.363 35.8288C849.69 35.791 849.955 35.7602 850.159 35.7365C850.362 35.7105 850.51 35.669 850.603 35.6122C850.695 35.5554 850.741 35.4631 850.741 35.3352V35.3104C850.741 35.0002 850.653 34.7599 850.478 34.5895C850.305 34.419 850.047 34.3338 849.704 34.3338C849.347 34.3338 849.065 34.4131 848.859 34.5717C848.655 34.728 848.514 34.902 848.436 35.0938L847.438 34.8665C847.557 34.535 847.73 34.2675 847.957 34.0639C848.187 33.858 848.451 33.7088 848.749 33.6165C849.047 33.5218 849.361 33.4744 849.69 33.4744C849.908 33.4744 850.139 33.5005 850.382 33.5526C850.629 33.6023 850.858 33.6946 851.071 33.8295C851.287 33.9645 851.463 34.1574 851.6 34.4084C851.738 34.657 851.806 34.9801 851.806 35.3778V39H850.769V38.2543H850.727C850.658 38.3916 850.555 38.5265 850.418 38.6591C850.281 38.7917 850.104 38.9018 849.889 38.9893C849.673 39.0769 849.415 39.1207 849.115 39.1207ZM849.345 38.2685C849.639 38.2685 849.89 38.2105 850.098 38.0945C850.309 37.9785 850.469 37.8269 850.578 37.6399C850.689 37.4505 850.745 37.2481 850.745 37.0327V36.3295C850.707 36.3674 850.633 36.4029 850.524 36.4361C850.418 36.4669 850.296 36.4941 850.159 36.5178C850.021 36.5391 849.888 36.5592 849.757 36.5781C849.627 36.5947 849.518 36.6089 849.431 36.6207C849.225 36.6468 849.036 36.6906 848.866 36.7521C848.698 36.8137 848.563 36.9025 848.461 37.0185C848.362 37.1321 848.312 37.2836 848.312 37.473C848.312 37.7358 848.409 37.9347 848.603 38.0696C848.797 38.2022 849.045 38.2685 849.345 38.2685ZM857.308 34.8771L856.346 35.0476C856.305 34.9245 856.241 34.8073 856.154 34.696C856.069 34.5848 855.953 34.4936 855.806 34.4226C855.659 34.3516 855.476 34.3161 855.255 34.3161C854.955 34.3161 854.704 34.3835 854.503 34.5185C854.301 34.651 854.201 34.8227 854.201 35.0334C854.201 35.2157 854.268 35.3625 854.403 35.4737C854.538 35.585 854.756 35.6761 855.057 35.7472L855.923 35.946C856.425 36.062 856.799 36.2408 857.045 36.4822C857.291 36.7237 857.415 37.0374 857.415 37.4233C857.415 37.75 857.32 38.0412 857.13 38.2969C856.943 38.5502 856.682 38.7491 856.346 38.8935C856.012 39.0379 855.625 39.1101 855.184 39.1101C854.574 39.1101 854.075 38.9799 853.689 38.7195C853.303 38.4567 853.067 38.0838 852.979 37.6009L854.005 37.4446C854.069 37.7121 854.201 37.9145 854.4 38.0518C854.598 38.1868 854.858 38.2543 855.177 38.2543C855.525 38.2543 855.803 38.1821 856.012 38.0376C856.22 37.8909 856.324 37.7121 856.324 37.5014C856.324 37.331 856.26 37.1877 856.133 37.0717C856.007 36.9557 855.814 36.8681 855.554 36.8089L854.63 36.6065C854.121 36.4905 853.745 36.3059 853.501 36.0526C853.26 35.7992 853.139 35.4785 853.139 35.0902C853.139 34.7682 853.229 34.4865 853.409 34.245C853.589 34.0036 853.837 33.8153 854.155 33.6804C854.472 33.5431 854.835 33.4744 855.245 33.4744C855.834 33.4744 856.298 33.6023 856.637 33.858C856.975 34.1113 857.199 34.451 857.308 34.8771ZM860.933 39.1101C860.395 39.1101 859.933 38.9953 859.544 38.7656C859.158 38.5336 858.86 38.2081 858.649 37.7891C858.441 37.3677 858.337 36.8741 858.337 36.3082C858.337 35.7495 858.441 35.2571 858.649 34.831C858.86 34.4048 859.154 34.0722 859.53 33.8331C859.909 33.594 860.352 33.4744 860.858 33.4744C861.166 33.4744 861.464 33.5253 861.753 33.6271C862.042 33.7289 862.301 33.8887 862.531 34.1065C862.76 34.3243 862.942 34.6072 863.074 34.9553C863.207 35.3009 863.273 35.7211 863.273 36.2159V36.5923H858.937V35.7969H862.233C862.233 35.5175 862.176 35.2701 862.062 35.0547C861.948 34.8369 861.789 34.6652 861.583 34.5398C861.379 34.4143 861.14 34.3516 860.865 34.3516C860.567 34.3516 860.307 34.425 860.084 34.5717C859.864 34.7161 859.693 34.9055 859.573 35.1399C859.454 35.3719 859.395 35.6241 859.395 35.8963V36.5178C859.395 36.8823 859.459 37.1925 859.587 37.4482C859.717 37.7038 859.898 37.8991 860.13 38.0341C860.362 38.1667 860.633 38.233 860.943 38.233C861.145 38.233 861.328 38.2045 861.494 38.1477C861.66 38.0885 861.803 38.0009 861.924 37.8849C862.044 37.7689 862.137 37.6257 862.201 37.4553L863.206 37.6364C863.125 37.9323 862.981 38.1915 862.772 38.4141C862.566 38.6342 862.307 38.8059 861.995 38.929C861.684 39.0497 861.331 39.1101 860.933 39.1101ZM818.31 47.3636C818.31 48.1402 818.168 48.8078 817.884 49.3665C817.6 49.9228 817.21 50.3513 816.715 50.652C816.223 50.9503 815.663 51.0994 815.036 51.0994C814.406 51.0994 813.844 50.9503 813.349 50.652C812.856 50.3513 812.468 49.9216 812.184 49.3629C811.9 48.8042 811.758 48.1378 811.758 47.3636C811.758 46.5871 811.9 45.9207 812.184 45.3643C812.468 44.8056 812.856 44.3771 813.349 44.0788C813.844 43.7782 814.406 43.6278 815.036 43.6278C815.663 43.6278 816.223 43.7782 816.715 44.0788C817.21 44.3771 817.6 44.8056 817.884 45.3643C818.168 45.9207 818.31 46.5871 818.31 47.3636ZM817.223 47.3636C817.223 46.7718 817.127 46.2734 816.936 45.8686C816.746 45.4614 816.486 45.1536 816.154 44.9453C815.825 44.7346 815.452 44.6293 815.036 44.6293C814.617 44.6293 814.243 44.7346 813.914 44.9453C813.584 45.1536 813.324 45.4614 813.132 45.8686C812.943 46.2734 812.848 46.7718 812.848 47.3636C812.848 47.9555 812.943 48.455 813.132 48.8622C813.324 49.267 813.584 49.5748 813.914 49.7855C814.243 49.9938 814.617 50.098 815.036 50.098C815.452 50.098 815.825 49.9938 816.154 49.7855C816.486 49.5748 816.746 49.267 816.936 48.8622C817.127 48.455 817.223 47.9555 817.223 47.3636ZM820.654 47.7614V51H819.593V45.5455H820.612V46.4332H820.679C820.805 46.1444 821.001 45.9124 821.269 45.7372C821.539 45.562 821.878 45.4744 822.288 45.4744C822.66 45.4744 822.985 45.5526 823.265 45.7088C823.544 45.8627 823.761 46.0923 823.914 46.3977C824.068 46.7031 824.145 47.0807 824.145 47.5305V51H823.083V47.6584C823.083 47.263 822.98 46.9541 822.775 46.7315C822.569 46.5066 822.286 46.3942 821.926 46.3942C821.68 46.3942 821.461 46.4474 821.269 46.554C821.079 46.6605 820.929 46.8168 820.818 47.0227C820.709 47.2263 820.654 47.4725 820.654 47.7614ZM829.657 46.8771L828.694 47.0476C828.654 46.9245 828.59 46.8073 828.502 46.696C828.417 46.5848 828.301 46.4936 828.154 46.4226C828.008 46.3516 827.824 46.3161 827.604 46.3161C827.303 46.3161 827.052 46.3835 826.851 46.5185C826.65 46.651 826.549 46.8227 826.549 47.0334C826.549 47.2157 826.617 47.3625 826.752 47.4737C826.887 47.585 827.105 47.6761 827.405 47.7472L828.272 47.946C828.774 48.062 829.148 48.2408 829.394 48.4822C829.64 48.7237 829.763 49.0374 829.763 49.4233C829.763 49.75 829.668 50.0412 829.479 50.2969C829.292 50.5502 829.03 50.7491 828.694 50.8935C828.36 51.0379 827.973 51.1101 827.533 51.1101C826.922 51.1101 826.424 50.9799 826.038 50.7195C825.652 50.4567 825.415 50.0838 825.328 49.6009L826.354 49.4446C826.418 49.7121 826.549 49.9145 826.748 50.0518C826.947 50.1868 827.206 50.2543 827.526 50.2543C827.874 50.2543 828.152 50.1821 828.36 50.0376C828.569 49.8909 828.673 49.7121 828.673 49.5014C828.673 49.331 828.609 49.1877 828.481 49.0717C828.356 48.9557 828.163 48.8681 827.902 48.8089L826.979 48.6065C826.47 48.4905 826.094 48.3059 825.85 48.0526C825.608 47.7992 825.488 47.4785 825.488 47.0902C825.488 46.7682 825.578 46.4865 825.757 46.245C825.937 46.0036 826.186 45.8153 826.503 45.6804C826.82 45.5431 827.184 45.4744 827.593 45.4744C828.183 45.4744 828.647 45.6023 828.985 45.858C829.324 46.1113 829.548 46.451 829.657 46.8771ZM833.281 51.1101C832.744 51.1101 832.281 50.9953 831.893 50.7656C831.507 50.5336 831.209 50.2081 830.998 49.7891C830.79 49.3677 830.686 48.8741 830.686 48.3082C830.686 47.7495 830.79 47.2571 830.998 46.831C831.209 46.4048 831.502 46.0722 831.879 45.8331C832.258 45.594 832.7 45.4744 833.207 45.4744C833.515 45.4744 833.813 45.5253 834.102 45.6271C834.391 45.7289 834.65 45.8887 834.879 46.1065C835.109 46.3243 835.29 46.6072 835.423 46.9553C835.555 47.3009 835.622 47.7211 835.622 48.2159V48.5923H831.286V47.7969H834.581C834.581 47.5175 834.524 47.2701 834.411 47.0547C834.297 46.8369 834.137 46.6652 833.931 46.5398C833.728 46.4143 833.489 46.3516 833.214 46.3516C832.916 46.3516 832.655 46.425 832.433 46.5717C832.213 46.7161 832.042 46.9055 831.921 47.1399C831.803 47.3719 831.744 47.6241 831.744 47.8963V48.5178C831.744 48.8823 831.808 49.1925 831.936 49.4482C832.066 49.7038 832.247 49.8991 832.479 50.0341C832.711 50.1667 832.982 50.233 833.292 50.233C833.493 50.233 833.677 50.2045 833.843 50.1477C834.008 50.0885 834.151 50.0009 834.272 49.8849C834.393 49.7689 834.485 49.6257 834.549 49.4553L835.554 49.6364C835.474 49.9323 835.329 50.1915 835.121 50.4141C834.915 50.6342 834.656 50.8059 834.343 50.929C834.033 51.0497 833.679 51.1101 833.281 51.1101ZM839.346 45.5455V46.3977H836.366V45.5455H839.346ZM837.165 44.2386H838.227V49.3984C838.227 49.6044 838.258 49.7595 838.32 49.8636C838.381 49.9654 838.46 50.0353 838.558 50.0732C838.657 50.1087 838.765 50.1264 838.881 50.1264C838.966 50.1264 839.04 50.1205 839.104 50.1087C839.168 50.0968 839.218 50.0874 839.254 50.0803L839.445 50.9574C839.384 50.9811 839.296 51.0047 839.183 51.0284C839.069 51.0545 838.927 51.0687 838.756 51.071C838.477 51.0758 838.217 51.026 837.975 50.9219C837.734 50.8177 837.538 50.6567 837.389 50.4389C837.24 50.2211 837.165 49.9477 837.165 49.6186V44.2386Z" fill="black" fill-opacity="0.8"/>
<path d="M497.074 36.7273V44H495.977V36.7273H497.074ZM499.649 40.7614V44H498.587V38.5455H499.606V39.4332H499.673C499.799 39.1444 499.995 38.9124 500.263 38.7372C500.533 38.562 500.873 38.4744 501.282 38.4744C501.654 38.4744 501.979 38.5526 502.259 38.7088C502.538 38.8627 502.755 39.0923 502.909 39.3977C503.062 39.7031 503.139 40.0807 503.139 40.5305V44H502.078V40.6584C502.078 40.263 501.975 39.9541 501.769 39.7315C501.563 39.5066 501.28 39.3942 500.92 39.3942C500.674 39.3942 500.455 39.4474 500.263 39.554C500.074 39.6605 499.923 39.8168 499.812 40.0227C499.703 40.2263 499.649 40.4725 499.649 40.7614ZM507.11 38.5455V39.3977H504.13V38.5455H507.11ZM504.929 37.2386H505.991V42.3984C505.991 42.6044 506.022 42.7595 506.083 42.8636C506.145 42.9654 506.224 43.0353 506.321 43.0732C506.421 43.1087 506.528 43.1264 506.644 43.1264C506.73 43.1264 506.804 43.1205 506.868 43.1087C506.932 43.0968 506.982 43.0874 507.017 43.0803L507.209 43.9574C507.147 43.9811 507.06 44.0047 506.946 44.0284C506.833 44.0545 506.691 44.0687 506.52 44.071C506.241 44.0758 505.98 44.026 505.739 43.9219C505.497 43.8177 505.302 43.6567 505.153 43.4389C505.004 43.2211 504.929 42.9477 504.929 42.6186V37.2386ZM510.576 44.1101C510.039 44.1101 509.576 43.9953 509.188 43.7656C508.802 43.5336 508.504 43.2081 508.293 42.7891C508.085 42.3677 507.98 41.8741 507.98 41.3082C507.98 40.7495 508.085 40.2571 508.293 39.831C508.504 39.4048 508.797 39.0722 509.174 38.8331C509.552 38.594 509.995 38.4744 510.502 38.4744C510.81 38.4744 511.108 38.5253 511.397 38.6271C511.685 38.7289 511.945 38.8887 512.174 39.1065C512.404 39.3243 512.585 39.6072 512.718 39.9553C512.85 40.3009 512.917 40.7211 512.917 41.2159V41.5923H508.581V40.7969H511.876C511.876 40.5175 511.819 40.2701 511.706 40.0547C511.592 39.8369 511.432 39.6652 511.226 39.5398C511.023 39.4143 510.783 39.3516 510.509 39.3516C510.211 39.3516 509.95 39.425 509.728 39.5717C509.507 39.7161 509.337 39.9055 509.216 40.1399C509.098 40.3719 509.039 40.6241 509.039 40.8963V41.5178C509.039 41.8823 509.103 42.1925 509.23 42.4482C509.361 42.7038 509.542 42.8991 509.774 43.0341C510.006 43.1667 510.277 43.233 510.587 43.233C510.788 43.233 510.972 43.2045 511.137 43.1477C511.303 43.0885 511.446 43.0009 511.567 42.8849C511.688 42.7689 511.78 42.6257 511.844 42.4553L512.849 42.6364C512.769 42.9323 512.624 43.1915 512.416 43.4141C512.21 43.6342 511.951 43.8059 511.638 43.929C511.328 44.0497 510.974 44.1101 510.576 44.1101ZM514.095 44V38.5455H515.121V39.4119H515.178C515.277 39.1184 515.452 38.8875 515.703 38.7195C515.957 38.549 516.243 38.4638 516.563 38.4638C516.629 38.4638 516.707 38.4661 516.797 38.4709C516.889 38.4756 516.962 38.4815 517.014 38.4886V39.5043C516.971 39.4924 516.895 39.4794 516.786 39.4652C516.677 39.4486 516.569 39.4403 516.46 39.4403C516.209 39.4403 515.985 39.4936 515.789 39.6001C515.594 39.7043 515.441 39.8499 515.327 40.0369C515.213 40.2216 515.156 40.4323 515.156 40.669V44H514.095ZM517.933 44V38.5455H518.952V39.4332H519.019C519.133 39.1326 519.319 38.8982 519.577 38.7301C519.835 38.5597 520.144 38.4744 520.504 38.4744C520.868 38.4744 521.174 38.5597 521.42 38.7301C521.668 38.9006 521.852 39.1349 521.97 39.4332H522.027C522.157 39.142 522.364 38.91 522.648 38.7372C522.933 38.562 523.271 38.4744 523.664 38.4744C524.159 38.4744 524.562 38.6295 524.875 38.9396C525.19 39.2498 525.347 39.7173 525.347 40.3423V44H524.286V40.4418C524.286 40.0724 524.185 39.8049 523.984 39.6392C523.782 39.4735 523.542 39.3906 523.263 39.3906C522.917 39.3906 522.648 39.4972 522.457 39.7102C522.265 39.9209 522.169 40.192 522.169 40.5234V44H521.111V40.3743C521.111 40.0784 521.018 39.8404 520.834 39.6605C520.649 39.4806 520.409 39.3906 520.113 39.3906C519.912 39.3906 519.726 39.4439 519.555 39.5504C519.387 39.6546 519.251 39.8002 519.147 39.9872C519.045 40.1742 518.994 40.3909 518.994 40.6371V44H517.933ZM529.121 44.1101C528.584 44.1101 528.121 43.9953 527.733 43.7656C527.347 43.5336 527.049 43.2081 526.838 42.7891C526.63 42.3677 526.525 41.8741 526.525 41.3082C526.525 40.7495 526.63 40.2571 526.838 39.831C527.049 39.4048 527.342 39.0722 527.719 38.8331C528.097 38.594 528.54 38.4744 529.047 38.4744C529.354 38.4744 529.653 38.5253 529.942 38.6271C530.23 38.7289 530.49 38.8887 530.719 39.1065C530.949 39.3243 531.13 39.6072 531.263 39.9553C531.395 40.3009 531.461 40.7211 531.461 41.2159V41.5923H527.126V40.7969H530.421C530.421 40.5175 530.364 40.2701 530.251 40.0547C530.137 39.8369 529.977 39.6652 529.771 39.5398C529.568 39.4143 529.328 39.3516 529.054 39.3516C528.756 39.3516 528.495 39.425 528.273 39.5717C528.052 39.7161 527.882 39.9055 527.761 40.1399C527.643 40.3719 527.584 40.6241 527.584 40.8963V41.5178C527.584 41.8823 527.648 42.1925 527.775 42.4482C527.906 42.7038 528.087 42.8991 528.319 43.0341C528.551 43.1667 528.822 43.233 529.132 43.233C529.333 43.233 529.517 43.2045 529.682 43.1477C529.848 43.0885 529.991 43.0009 530.112 42.8849C530.233 42.7689 530.325 42.6257 530.389 42.4553L531.394 42.6364C531.314 42.9323 531.169 43.1915 530.961 43.4141C530.755 43.6342 530.496 43.8059 530.183 43.929C529.873 44.0497 529.519 44.1101 529.121 44.1101ZM534.681 44.1065C534.241 44.1065 533.848 43.9941 533.502 43.7692C533.159 43.5419 532.889 43.2187 532.693 42.7997C532.499 42.3783 532.402 41.8729 532.402 41.2834C532.402 40.6939 532.5 40.1896 532.696 39.7706C532.895 39.3516 533.167 39.0308 533.513 38.8082C533.859 38.5857 534.251 38.4744 534.689 38.4744C535.027 38.4744 535.299 38.5312 535.505 38.6449C535.714 38.7562 535.875 38.8864 535.988 39.0355C536.104 39.1847 536.194 39.3161 536.258 39.4297H536.322V36.7273H537.384V44H536.347V43.1513H536.258C536.194 43.2673 536.102 43.3999 535.981 43.549C535.863 43.6982 535.699 43.8284 535.491 43.9396C535.283 44.0509 535.013 44.1065 534.681 44.1065ZM534.916 43.201C535.221 43.201 535.479 43.1205 535.69 42.9595C535.903 42.7962 536.064 42.5701 536.173 42.2812C536.284 41.9924 536.34 41.6562 536.34 41.2727C536.34 40.8939 536.285 40.5625 536.176 40.2784C536.068 39.9943 535.908 39.773 535.697 39.6143C535.486 39.4557 535.226 39.3764 534.916 39.3764C534.596 39.3764 534.33 39.4593 534.117 39.625C533.904 39.7907 533.743 40.0168 533.634 40.3033C533.527 40.5897 533.474 40.9129 533.474 41.2727C533.474 41.6373 533.529 41.9652 533.637 42.2564C533.746 42.5476 533.907 42.7784 534.12 42.9489C534.336 43.117 534.601 43.201 534.916 43.201ZM538.899 44V38.5455H539.961V44H538.899ZM539.436 37.7038C539.251 37.7038 539.092 37.6423 538.96 37.5192C538.829 37.3937 538.764 37.2446 538.764 37.0717C538.764 36.8965 538.829 36.7474 538.96 36.6243C539.092 36.4988 539.251 36.4361 539.436 36.4361C539.62 36.4361 539.778 36.4988 539.908 36.6243C540.04 36.7474 540.107 36.8965 540.107 37.0717C540.107 37.2446 540.04 37.3937 539.908 37.5192C539.778 37.6423 539.62 37.7038 539.436 37.7038ZM542.977 44.1207C542.631 44.1207 542.319 44.0568 542.039 43.929C541.76 43.7988 541.539 43.6106 541.375 43.3643C541.214 43.1181 541.134 42.8163 541.134 42.4588C541.134 42.151 541.193 41.8977 541.311 41.6989C541.43 41.5 541.59 41.3426 541.791 41.2266C541.992 41.1106 542.217 41.023 542.466 40.9638C542.714 40.9046 542.967 40.8596 543.225 40.8288C543.552 40.791 543.817 40.7602 544.021 40.7365C544.225 40.7105 544.373 40.669 544.465 40.6122C544.557 40.5554 544.603 40.4631 544.603 40.3352V40.3104C544.603 40.0002 544.516 39.7599 544.341 39.5895C544.168 39.419 543.91 39.3338 543.566 39.3338C543.209 39.3338 542.927 39.4131 542.721 39.5717C542.518 39.728 542.377 39.902 542.299 40.0938L541.301 39.8665C541.419 39.535 541.592 39.2675 541.819 39.0639C542.049 38.858 542.313 38.7088 542.611 38.6165C542.909 38.5218 543.223 38.4744 543.552 38.4744C543.77 38.4744 544.001 38.5005 544.245 38.5526C544.491 38.6023 544.721 38.6946 544.934 38.8295C545.149 38.9645 545.325 39.1574 545.463 39.4084C545.6 39.657 545.669 39.9801 545.669 40.3778V44H544.632V43.2543H544.589C544.52 43.3916 544.417 43.5265 544.28 43.6591C544.143 43.7917 543.967 43.9018 543.751 43.9893C543.536 44.0769 543.278 44.1207 542.977 44.1207ZM543.208 43.2685C543.501 43.2685 543.752 43.2105 543.961 43.0945C544.171 42.9785 544.331 42.8269 544.44 42.6399C544.551 42.4505 544.607 42.2481 544.607 42.0327V41.3295C544.569 41.3674 544.496 41.4029 544.387 41.4361C544.28 41.4669 544.158 41.4941 544.021 41.5178C543.884 41.5391 543.75 41.5592 543.62 41.5781C543.489 41.5947 543.381 41.6089 543.293 41.6207C543.087 41.6468 542.899 41.6906 542.728 41.7521C542.56 41.8137 542.425 41.9025 542.324 42.0185C542.224 42.1321 542.174 42.2836 542.174 42.473C542.174 42.7358 542.271 42.9347 542.466 43.0696C542.66 43.2022 542.907 43.2685 543.208 43.2685ZM549.629 38.5455V39.3977H546.65V38.5455H549.629ZM547.449 37.2386H548.51V42.3984C548.51 42.6044 548.541 42.7595 548.603 42.8636C548.664 42.9654 548.744 43.0353 548.841 43.0732C548.94 43.1087 549.048 43.1264 549.164 43.1264C549.249 43.1264 549.324 43.1205 549.388 43.1087C549.452 43.0968 549.501 43.0874 549.537 43.0803L549.729 43.9574C549.667 43.9811 549.579 44.0047 549.466 44.0284C549.352 44.0545 549.21 44.0687 549.04 44.071C548.76 44.0758 548.5 44.026 548.258 43.9219C548.017 43.8177 547.822 43.6567 547.672 43.4389C547.523 43.2211 547.449 42.9477 547.449 42.6186V37.2386ZM553.096 44.1101C552.558 44.1101 552.096 43.9953 551.707 43.7656C551.321 43.5336 551.023 43.2081 550.812 42.7891C550.604 42.3677 550.5 41.8741 550.5 41.3082C550.5 40.7495 550.604 40.2571 550.812 39.831C551.023 39.4048 551.317 39.0722 551.693 38.8331C552.072 38.594 552.515 38.4744 553.021 38.4744C553.329 38.4744 553.627 38.5253 553.916 38.6271C554.205 38.7289 554.464 38.8887 554.694 39.1065C554.924 39.3243 555.105 39.6072 555.237 39.9553C555.37 40.3009 555.436 40.7211 555.436 41.2159V41.5923H551.1V40.7969H554.396C554.396 40.5175 554.339 40.2701 554.225 40.0547C554.112 39.8369 553.952 39.6652 553.746 39.5398C553.542 39.4143 553.303 39.3516 553.028 39.3516C552.73 39.3516 552.47 39.425 552.247 39.5717C552.027 39.7161 551.857 39.9055 551.736 40.1399C551.617 40.3719 551.558 40.6241 551.558 40.8963V41.5178C551.558 41.8823 551.622 42.1925 551.75 42.4482C551.88 42.7038 552.061 42.8991 552.293 43.0341C552.525 43.1667 552.796 43.233 553.107 43.233C553.308 43.233 553.491 43.2045 553.657 43.1477C553.823 43.0885 553.966 43.0009 554.087 42.8849C554.207 42.7689 554.3 42.6257 554.364 42.4553L555.369 42.6364C555.288 42.9323 555.144 43.1915 554.935 43.4141C554.729 43.6342 554.47 43.8059 554.158 43.929C553.848 44.0497 553.494 44.1101 553.096 44.1101ZM559.346 44V36.7273H561.938C562.502 36.7273 562.969 36.8243 563.341 37.0185C563.715 37.2126 563.994 37.4813 564.179 37.8246C564.364 38.1655 564.456 38.5597 564.456 39.0071C564.456 39.4522 564.362 39.844 564.175 40.1825C563.991 40.5187 563.711 40.7803 563.337 40.9673C562.966 41.1544 562.498 41.2479 561.935 41.2479H559.971V40.3033H561.835C562.19 40.3033 562.479 40.2524 562.702 40.1506C562.927 40.0488 563.091 39.9008 563.195 39.7067C563.299 39.5125 563.352 39.2794 563.352 39.0071C563.352 38.7325 563.298 38.4946 563.192 38.2933C563.088 38.0921 562.923 37.9382 562.698 37.8317C562.476 37.7228 562.183 37.6683 561.821 37.6683H560.443V44H559.346ZM562.936 40.7188L564.733 44H563.483L561.722 40.7188H562.936ZM565.706 44V38.5455H566.768V44H565.706ZM566.242 37.7038C566.058 37.7038 565.899 37.6423 565.766 37.5192C565.636 37.3937 565.571 37.2446 565.571 37.0717C565.571 36.8965 565.636 36.7474 565.766 36.6243C565.899 36.4988 566.058 36.4361 566.242 36.4361C566.427 36.4361 566.584 36.4988 566.714 36.6243C566.847 36.7474 566.913 36.8965 566.913 37.0717C566.913 37.2446 566.847 37.3937 566.714 37.5192C566.584 37.6423 566.427 37.7038 566.242 37.7038ZM572.284 39.8771L571.321 40.0476C571.281 39.9245 571.217 39.8073 571.129 39.696C571.044 39.5848 570.928 39.4936 570.781 39.4226C570.635 39.3516 570.451 39.3161 570.231 39.3161C569.93 39.3161 569.679 39.3835 569.478 39.5185C569.277 39.651 569.176 39.8227 569.176 40.0334C569.176 40.2157 569.244 40.3625 569.379 40.4737C569.514 40.585 569.731 40.6761 570.032 40.7472L570.899 40.946C571.401 41.062 571.775 41.2408 572.021 41.4822C572.267 41.7237 572.39 42.0374 572.39 42.4233C572.39 42.75 572.295 43.0412 572.106 43.2969C571.919 43.5502 571.657 43.7491 571.321 43.8935C570.987 44.0379 570.6 44.1101 570.16 44.1101C569.549 44.1101 569.051 43.9799 568.665 43.7195C568.279 43.4567 568.042 43.0838 567.955 42.6009L568.981 42.4446C569.045 42.7121 569.176 42.9145 569.375 43.0518C569.574 43.1868 569.833 43.2543 570.153 43.2543C570.501 43.2543 570.779 43.1821 570.987 43.0376C571.196 42.8909 571.3 42.7121 571.3 42.5014C571.3 42.331 571.236 42.1877 571.108 42.0717C570.983 41.9557 570.79 41.8681 570.529 41.8089L569.606 41.6065C569.097 41.4905 568.721 41.3059 568.477 41.0526C568.235 40.7992 568.115 40.4785 568.115 40.0902C568.115 39.7682 568.204 39.4865 568.384 39.245C568.564 39.0036 568.813 38.8153 569.13 38.6804C569.447 38.5431 569.811 38.4744 570.22 38.4744C570.81 38.4744 571.274 38.6023 571.612 38.858C571.951 39.1113 572.175 39.451 572.284 39.8771ZM574.534 42.1499L574.527 40.8537H574.712L576.885 38.5455H578.156L575.678 41.1733H575.511L574.534 42.1499ZM573.558 44V36.7273H574.619V44H573.558ZM577.002 44L575.049 41.4077L575.781 40.6655L578.305 44H577.002ZM581.856 44V36.7273H586.366V37.6719H582.953V39.8878H586.042V40.8288H582.953V44H581.856ZM589.198 44.1207C588.852 44.1207 588.539 44.0568 588.26 43.929C587.981 43.7988 587.759 43.6106 587.596 43.3643C587.435 43.1181 587.355 42.8163 587.355 42.4588C587.355 42.151 587.414 41.8977 587.532 41.6989C587.651 41.5 587.81 41.3426 588.012 41.2266C588.213 41.1106 588.438 41.023 588.686 40.9638C588.935 40.9046 589.188 40.8596 589.446 40.8288C589.773 40.791 590.038 40.7602 590.242 40.7365C590.445 40.7105 590.593 40.669 590.686 40.6122C590.778 40.5554 590.824 40.4631 590.824 40.3352V40.3104C590.824 40.0002 590.736 39.7599 590.561 39.5895C590.388 39.419 590.13 39.3338 589.787 39.3338C589.43 39.3338 589.148 39.4131 588.942 39.5717C588.738 39.728 588.597 39.902 588.519 40.0938L587.521 39.8665C587.64 39.535 587.813 39.2675 588.04 39.0639C588.27 38.858 588.534 38.7088 588.832 38.6165C589.13 38.5218 589.444 38.4744 589.773 38.4744C589.991 38.4744 590.222 38.5005 590.465 38.5526C590.712 38.6023 590.941 38.6946 591.154 38.8295C591.37 38.9645 591.546 39.1574 591.683 39.4084C591.821 39.657 591.889 39.9801 591.889 40.3778V44H590.852V43.2543H590.81C590.741 43.3916 590.638 43.5265 590.501 43.6591C590.364 43.7917 590.187 43.9018 589.972 43.9893C589.756 44.0769 589.498 44.1207 589.198 44.1207ZM589.428 43.2685C589.722 43.2685 589.973 43.2105 590.181 43.0945C590.392 42.9785 590.552 42.8269 590.661 42.6399C590.772 42.4505 590.828 42.2481 590.828 42.0327V41.3295C590.79 41.3674 590.716 41.4029 590.607 41.4361C590.501 41.4669 590.379 41.4941 590.242 41.5178C590.104 41.5391 589.971 41.5592 589.84 41.5781C589.71 41.5947 589.601 41.6089 589.514 41.6207C589.308 41.6468 589.119 41.6906 588.949 41.7521C588.781 41.8137 588.646 41.9025 588.544 42.0185C588.445 42.1321 588.395 42.2836 588.395 42.473C588.395 42.7358 588.492 42.9347 588.686 43.0696C588.88 43.2022 589.128 43.2685 589.428 43.2685ZM595.601 44.1101C595.073 44.1101 594.619 43.9905 594.238 43.7514C593.859 43.5099 593.568 43.1773 593.364 42.7536C593.16 42.3298 593.059 41.8445 593.059 41.2976C593.059 40.7436 593.163 40.2547 593.371 39.831C593.579 39.4048 593.873 39.0722 594.252 38.8331C594.631 38.594 595.077 38.4744 595.591 38.4744C596.005 38.4744 596.374 38.5514 596.699 38.7053C597.023 38.8568 597.284 39.0698 597.483 39.3445C597.685 39.6191 597.804 39.9399 597.842 40.3068H596.809C596.752 40.0511 596.622 39.831 596.418 39.6463C596.217 39.4616 595.947 39.3693 595.608 39.3693C595.312 39.3693 595.053 39.4474 594.831 39.6037C594.61 39.7576 594.439 39.9777 594.316 40.2642C594.193 40.5483 594.131 40.8845 594.131 41.2727C594.131 41.6705 594.191 42.0137 594.312 42.3026C594.433 42.5914 594.603 42.8151 594.824 42.9737C595.046 43.1323 595.308 43.2116 595.608 43.2116C595.81 43.2116 595.992 43.175 596.155 43.1016C596.321 43.0258 596.459 42.9181 596.571 42.7784C596.684 42.6387 596.764 42.4706 596.809 42.2741H597.842C597.804 42.6269 597.689 42.9418 597.498 43.2188C597.306 43.4957 597.049 43.7135 596.727 43.8722C596.407 44.0308 596.032 44.1101 595.601 44.1101ZM601.524 38.5455V39.3977H598.544V38.5455H601.524ZM599.343 37.2386H600.405V42.3984C600.405 42.6044 600.436 42.7595 600.497 42.8636C600.559 42.9654 600.638 43.0353 600.735 43.0732C600.835 43.1087 600.942 43.1264 601.058 43.1264C601.144 43.1264 601.218 43.1205 601.282 43.1087C601.346 43.0968 601.396 43.0874 601.431 43.0803L601.623 43.9574C601.561 43.9811 601.474 44.0047 601.36 44.0284C601.247 44.0545 601.105 44.0687 600.934 44.071C600.655 44.0758 600.394 44.026 600.153 43.9219C599.911 43.8177 599.716 43.6567 599.567 43.4389C599.418 43.2211 599.343 42.9477 599.343 42.6186V37.2386ZM604.937 44.1101C604.426 44.1101 603.98 43.9929 603.598 43.7585C603.217 43.5241 602.921 43.1963 602.711 42.7749C602.5 42.3535 602.395 41.861 602.395 41.2976C602.395 40.7318 602.5 40.237 602.711 39.8132C602.921 39.3894 603.217 39.0604 603.598 38.826C603.98 38.5916 604.426 38.4744 604.937 38.4744C605.449 38.4744 605.895 38.5916 606.276 38.826C606.657 39.0604 606.953 39.3894 607.164 39.8132C607.374 40.237 607.48 40.7318 607.48 41.2976C607.48 41.861 607.374 42.3535 607.164 42.7749C606.953 43.1963 606.657 43.5241 606.276 43.7585C605.895 43.9929 605.449 44.1101 604.937 44.1101ZM604.941 43.2188C605.272 43.2188 605.547 43.1312 605.765 42.956C605.982 42.7808 606.143 42.5476 606.248 42.2564C606.354 41.9652 606.407 41.6444 606.407 41.294C606.407 40.946 606.354 40.6264 606.248 40.3352C606.143 40.0417 605.982 39.8061 605.765 39.6286C605.547 39.451 605.272 39.3622 604.941 39.3622C604.607 39.3622 604.33 39.451 604.11 39.6286C603.892 39.8061 603.73 40.0417 603.623 40.3352C603.519 40.6264 603.467 40.946 603.467 41.294C603.467 41.6444 603.519 41.9652 603.623 42.2564C603.73 42.5476 603.892 42.7808 604.11 42.956C604.33 43.1312 604.607 43.2188 604.941 43.2188ZM608.665 44V38.5455H609.691V39.4119H609.748C609.847 39.1184 610.023 38.8875 610.274 38.7195C610.527 38.549 610.813 38.4638 611.133 38.4638C611.199 38.4638 611.277 38.4661 611.367 38.4709C611.46 38.4756 611.532 38.4815 611.584 38.4886V39.5043C611.541 39.4924 611.466 39.4794 611.357 39.4652C611.248 39.4486 611.139 39.4403 611.03 39.4403C610.779 39.4403 610.555 39.4936 610.359 39.6001C610.165 39.7043 610.011 39.8499 609.897 40.0369C609.784 40.2216 609.727 40.4323 609.727 40.669V44H608.665ZM616.59 39.8771L615.628 40.0476C615.588 39.9245 615.524 39.8073 615.436 39.696C615.351 39.5848 615.235 39.4936 615.088 39.4226C614.941 39.3516 614.758 39.3161 614.538 39.3161C614.237 39.3161 613.986 39.3835 613.785 39.5185C613.584 39.651 613.483 39.8227 613.483 40.0334C613.483 40.2157 613.55 40.3625 613.685 40.4737C613.82 40.585 614.038 40.6761 614.339 40.7472L615.205 40.946C615.707 41.062 616.081 41.2408 616.327 41.4822C616.574 41.7237 616.697 42.0374 616.697 42.4233C616.697 42.75 616.602 43.0412 616.413 43.2969C616.226 43.5502 615.964 43.7491 615.628 43.8935C615.294 44.0379 614.907 44.1101 614.467 44.1101C613.856 44.1101 613.357 43.9799 612.972 43.7195C612.586 43.4567 612.349 43.0838 612.261 42.6009L613.288 42.4446C613.352 42.7121 613.483 42.9145 613.682 43.0518C613.881 43.1868 614.14 43.2543 614.46 43.2543C614.808 43.2543 615.086 43.1821 615.294 43.0376C615.502 42.8909 615.607 42.7121 615.607 42.5014C615.607 42.331 615.543 42.1877 615.415 42.0717C615.289 41.9557 615.096 41.8681 614.836 41.8089L613.913 41.6065C613.404 41.4905 613.027 41.3059 612.783 41.0526C612.542 40.7992 612.421 40.4785 612.421 40.0902C612.421 39.7682 612.511 39.4865 612.691 39.245C612.871 39.0036 613.12 38.8153 613.437 38.6804C613.754 38.5431 614.117 38.4744 614.527 38.4744C615.116 38.4744 615.58 38.6023 615.919 38.858C616.258 39.1113 616.481 39.451 616.59 39.8771ZM620.634 36.3864L618.29 45.0938H617.342L619.686 36.3864H620.634ZM542.223 56H539.868V48.7273H542.297C543.01 48.7273 543.622 48.8729 544.133 49.1641C544.645 49.4529 545.036 49.8684 545.309 50.4105C545.583 50.9503 545.721 51.5978 545.721 52.353C545.721 53.1106 545.582 53.7616 545.305 54.3061C545.031 54.8506 544.633 55.2696 544.112 55.5632C543.591 55.8544 542.961 56 542.223 56ZM540.966 55.0412H542.162C542.716 55.0412 543.177 54.937 543.544 54.7287C543.911 54.518 544.185 54.2138 544.368 53.8161C544.55 53.416 544.641 52.9283 544.641 52.353C544.641 51.7824 544.55 51.2983 544.368 50.9006C544.188 50.5028 543.919 50.201 543.562 49.995C543.204 49.7891 542.76 49.6861 542.23 49.6861H540.966V55.0412ZM547 56V50.5455H548.062V56H547ZM547.536 49.7038C547.351 49.7038 547.193 49.6423 547.06 49.5192C546.93 49.3937 546.865 49.2446 546.865 49.0717C546.865 48.8965 546.93 48.7474 547.06 48.6243C547.193 48.4988 547.351 48.4361 547.536 48.4361C547.721 48.4361 547.878 48.4988 548.008 48.6243C548.141 48.7474 548.207 48.8965 548.207 49.0717C548.207 49.2446 548.141 49.3937 548.008 49.5192C547.878 49.6423 547.721 49.7038 547.536 49.7038ZM553.578 51.8771L552.615 52.0476C552.575 51.9245 552.511 51.8073 552.423 51.696C552.338 51.5848 552.222 51.4936 552.075 51.4226C551.929 51.3516 551.745 51.3161 551.525 51.3161C551.224 51.3161 550.973 51.3835 550.772 51.5185C550.571 51.651 550.47 51.8227 550.47 52.0334C550.47 52.2157 550.538 52.3625 550.673 52.4737C550.808 52.585 551.025 52.6761 551.326 52.7472L552.193 52.946C552.694 53.062 553.069 53.2408 553.315 53.4822C553.561 53.7237 553.684 54.0374 553.684 54.4233C553.684 54.75 553.589 55.0412 553.4 55.2969C553.213 55.5502 552.951 55.7491 552.615 55.8935C552.281 56.0379 551.894 56.1101 551.454 56.1101C550.843 56.1101 550.345 55.9799 549.959 55.7195C549.573 55.4567 549.336 55.0838 549.249 54.6009L550.275 54.4446C550.339 54.7121 550.47 54.9145 550.669 55.0518C550.868 55.1868 551.127 55.2543 551.447 55.2543C551.795 55.2543 552.073 55.1821 552.281 55.0376C552.49 54.8909 552.594 54.7121 552.594 54.5014C552.594 54.331 552.53 54.1877 552.402 54.0717C552.277 53.9557 552.084 53.8681 551.823 53.8089L550.9 53.6065C550.391 53.4905 550.015 53.3059 549.771 53.0526C549.529 52.7992 549.408 52.4785 549.408 52.0902C549.408 51.7682 549.498 51.4865 549.678 51.245C549.858 51.0036 550.107 50.8153 550.424 50.6804C550.741 50.5431 551.105 50.4744 551.514 50.4744C552.104 50.4744 552.568 50.6023 552.906 50.858C553.245 51.1113 553.469 51.451 553.578 51.8771ZM557.202 56.1101C556.665 56.1101 556.202 55.9953 555.814 55.7656C555.428 55.5336 555.13 55.2081 554.919 54.7891C554.711 54.3677 554.606 53.8741 554.606 53.3082C554.606 52.7495 554.711 52.2571 554.919 51.831C555.13 51.4048 555.423 51.0722 555.8 50.8331C556.178 50.594 556.621 50.4744 557.128 50.4744C557.436 50.4744 557.734 50.5253 558.023 50.6271C558.311 50.7289 558.571 50.8887 558.8 51.1065C559.03 51.3243 559.211 51.6072 559.344 51.9553C559.476 52.3009 559.543 52.7211 559.543 53.2159V53.5923H555.207V52.7969H558.502C558.502 52.5175 558.445 52.2701 558.332 52.0547C558.218 51.8369 558.058 51.6652 557.852 51.5398C557.649 51.4143 557.409 51.3516 557.135 51.3516C556.837 51.3516 556.576 51.425 556.354 51.5717C556.133 51.7161 555.963 51.9055 555.842 52.1399C555.724 52.3719 555.665 52.6241 555.665 52.8963V53.5178C555.665 53.8823 555.729 54.1925 555.856 54.4482C555.987 54.7038 556.168 54.8991 556.4 55.0341C556.632 55.1667 556.903 55.233 557.213 55.233C557.414 55.233 557.598 55.2045 557.763 55.1477C557.929 55.0885 558.072 55.0009 558.193 54.8849C558.314 54.7689 558.406 54.6257 558.47 54.4553L559.475 54.6364C559.395 54.9323 559.25 55.1915 559.042 55.4141C558.836 55.6342 558.577 55.8059 558.264 55.929C557.954 56.0497 557.6 56.1101 557.202 56.1101ZM562.308 56.1207C561.962 56.1207 561.65 56.0568 561.37 55.929C561.091 55.7988 560.87 55.6106 560.706 55.3643C560.545 55.1181 560.465 54.8163 560.465 54.4588C560.465 54.151 560.524 53.8977 560.642 53.6989C560.761 53.5 560.921 53.3426 561.122 53.2266C561.323 53.1106 561.548 53.023 561.797 52.9638C562.045 52.9046 562.299 52.8596 562.557 52.8288C562.883 52.791 563.148 52.7602 563.352 52.7365C563.556 52.7105 563.704 52.669 563.796 52.6122C563.888 52.5554 563.934 52.4631 563.934 52.3352V52.3104C563.934 52.0002 563.847 51.7599 563.672 51.5895C563.499 51.419 563.241 51.3338 562.897 51.3338C562.54 51.3338 562.258 51.4131 562.052 51.5717C561.849 51.728 561.708 51.902 561.63 52.0938L560.632 51.8665C560.75 51.535 560.923 51.2675 561.15 51.0639C561.38 50.858 561.644 50.7088 561.942 50.6165C562.241 50.5218 562.554 50.4744 562.883 50.4744C563.101 50.4744 563.332 50.5005 563.576 50.5526C563.822 50.6023 564.052 50.6946 564.265 50.8295C564.48 50.9645 564.656 51.1574 564.794 51.4084C564.931 51.657 565 51.9801 565 52.3778V56H563.963V55.2543H563.92C563.852 55.3916 563.749 55.5265 563.611 55.6591C563.474 55.7917 563.298 55.9018 563.082 55.9893C562.867 56.0769 562.609 56.1207 562.308 56.1207ZM562.539 55.2685C562.832 55.2685 563.083 55.2105 563.292 55.0945C563.502 54.9785 563.662 54.8269 563.771 54.6399C563.882 54.4505 563.938 54.2481 563.938 54.0327V53.3295C563.9 53.3674 563.827 53.4029 563.718 53.4361C563.611 53.4669 563.489 53.4941 563.352 53.5178C563.215 53.5391 563.081 53.5592 562.951 53.5781C562.821 53.5947 562.712 53.6089 562.624 53.6207C562.418 53.6468 562.23 53.6906 562.059 53.7521C561.891 53.8137 561.756 53.9025 561.655 54.0185C561.555 54.1321 561.505 54.2836 561.505 54.473C561.505 54.7358 561.602 54.9347 561.797 55.0696C561.991 55.2022 562.238 55.2685 562.539 55.2685ZM570.501 51.8771L569.539 52.0476C569.499 51.9245 569.435 51.8073 569.347 51.696C569.262 51.5848 569.146 51.4936 568.999 51.4226C568.852 51.3516 568.669 51.3161 568.449 51.3161C568.148 51.3161 567.897 51.3835 567.696 51.5185C567.495 51.651 567.394 51.8227 567.394 52.0334C567.394 52.2157 567.462 52.3625 567.597 52.4737C567.731 52.585 567.949 52.6761 568.25 52.7472L569.116 52.946C569.618 53.062 569.992 53.2408 570.239 53.4822C570.485 53.7237 570.608 54.0374 570.608 54.4233C570.608 54.75 570.513 55.0412 570.324 55.2969C570.137 55.5502 569.875 55.7491 569.539 55.8935C569.205 56.0379 568.818 56.1101 568.378 56.1101C567.767 56.1101 567.269 55.9799 566.883 55.7195C566.497 55.4567 566.26 55.0838 566.172 54.6009L567.199 54.4446C567.263 54.7121 567.394 54.9145 567.593 55.0518C567.792 55.1868 568.051 55.2543 568.371 55.2543C568.719 55.2543 568.997 55.1821 569.205 55.0376C569.414 54.8909 569.518 54.7121 569.518 54.5014C569.518 54.331 569.454 54.1877 569.326 54.0717C569.2 53.9557 569.007 53.8681 568.747 53.8089L567.824 53.6065C567.315 53.4905 566.938 53.3059 566.695 53.0526C566.453 52.7992 566.332 52.4785 566.332 52.0902C566.332 51.7682 566.422 51.4865 566.602 51.245C566.782 51.0036 567.031 50.8153 567.348 50.6804C567.665 50.5431 568.029 50.4744 568.438 50.4744C569.028 50.4744 569.492 50.6023 569.83 50.858C570.169 51.1113 570.392 51.451 570.501 51.8771ZM574.126 56.1101C573.589 56.1101 573.126 55.9953 572.738 55.7656C572.352 55.5336 572.053 55.2081 571.843 54.7891C571.634 54.3677 571.53 53.8741 571.53 53.3082C571.53 52.7495 571.634 52.2571 571.843 51.831C572.053 51.4048 572.347 51.0722 572.723 50.8331C573.102 50.594 573.545 50.4744 574.052 50.4744C574.359 50.4744 574.658 50.5253 574.946 50.6271C575.235 50.7289 575.495 50.8887 575.724 51.1065C575.954 51.3243 576.135 51.6072 576.267 51.9553C576.4 52.3009 576.466 52.7211 576.466 53.2159V53.5923H572.13V52.7969H575.426C575.426 52.5175 575.369 52.2701 575.255 52.0547C575.142 51.8369 574.982 51.6652 574.776 51.5398C574.572 51.4143 574.333 51.3516 574.059 51.3516C573.76 51.3516 573.5 51.425 573.277 51.5717C573.057 51.7161 572.887 51.9055 572.766 52.1399C572.648 52.3719 572.589 52.6241 572.589 52.8963V53.5178C572.589 53.8823 572.652 54.1925 572.78 54.4482C572.91 54.7038 573.092 54.8991 573.324 55.0341C573.556 55.1667 573.827 55.233 574.137 55.233C574.338 55.233 574.522 55.2045 574.687 55.1477C574.853 55.0885 574.996 55.0009 575.117 54.8849C575.238 54.7689 575.33 54.6257 575.394 54.4553L576.399 54.6364C576.318 54.9323 576.174 55.1915 575.966 55.4141C575.76 55.6342 575.5 55.8059 575.188 55.929C574.878 56.0497 574.524 56.1101 574.126 56.1101Z" fill="black" fill-opacity="0.8"/>
<path d="M942.717 86V78.7273H944.035V84.8956H947.238V86H942.717ZM948.325 86V80.5455H949.61V86H948.325ZM948.971 79.7713C948.767 79.7713 948.592 79.7038 948.445 79.5689C948.299 79.4316 948.225 79.267 948.225 79.0753C948.225 78.8812 948.299 78.7166 948.445 78.5817C948.592 78.4444 948.767 78.3757 948.971 78.3757C949.177 78.3757 949.352 78.4444 949.496 78.5817C949.643 78.7166 949.717 78.8812 949.717 79.0753C949.717 79.267 949.643 79.4316 949.496 79.5689C949.352 79.7038 949.177 79.7713 948.971 79.7713ZM953.695 80.5455V81.5398H950.47V80.5455H953.695ZM951.276 86V80.0305C951.276 79.6636 951.352 79.3582 951.504 79.1143C951.658 78.8705 951.864 78.6882 952.122 78.5675C952.38 78.4467 952.666 78.3864 952.981 78.3864C953.204 78.3864 953.401 78.4041 953.574 78.4396C953.747 78.4751 953.875 78.5071 953.958 78.5355L953.702 79.5298C953.647 79.5133 953.579 79.4967 953.496 79.4801C953.413 79.4612 953.321 79.4517 953.219 79.4517C952.98 79.4517 952.811 79.5097 952.711 79.6257C952.614 79.7393 952.566 79.9027 952.566 80.1158V86H951.276ZM956.911 86.1065C956.364 86.1065 955.892 85.9929 955.494 85.7656C955.099 85.536 954.795 85.2116 954.582 84.7926C954.369 84.3712 954.262 83.8752 954.262 83.3047C954.262 82.7436 954.369 82.2512 954.582 81.8274C954.797 81.4013 955.098 81.0698 955.484 80.8331C955.87 80.594 956.323 80.4744 956.844 80.4744C957.18 80.4744 957.497 80.5289 957.795 80.6378C958.096 80.7443 958.361 80.91 958.591 81.1349C958.823 81.3598 959.005 81.6463 959.138 81.9943C959.27 82.34 959.337 82.7519 959.337 83.2301V83.6243H954.866V82.7578H958.104C958.102 82.5116 958.049 82.2926 957.945 82.1009C957.84 81.9067 957.695 81.754 957.508 81.6428C957.323 81.5315 957.108 81.4759 956.862 81.4759C956.599 81.4759 956.368 81.5398 956.169 81.6676C955.97 81.7931 955.815 81.9588 955.704 82.1648C955.595 82.3684 955.539 82.5921 955.537 82.8359V83.5923C955.537 83.9096 955.595 84.1818 955.711 84.4091C955.827 84.634 955.989 84.8068 956.197 84.9276C956.406 85.0459 956.65 85.1051 956.929 85.1051C957.116 85.1051 957.285 85.0791 957.437 85.027C957.588 84.9725 957.72 84.8932 957.831 84.7891C957.942 84.6849 958.026 84.5559 958.083 84.402L959.283 84.5369C959.208 84.8542 959.063 85.1312 958.85 85.3679C958.639 85.6023 958.37 85.7846 958.04 85.9148C957.711 86.0426 957.335 86.1065 956.911 86.1065ZM962.803 86.1065C962.259 86.1065 961.791 85.987 961.401 85.7479C961.012 85.5088 960.713 85.1785 960.502 84.7571C960.294 84.3333 960.19 83.8456 960.19 83.294C960.19 82.7401 960.296 82.2512 960.509 81.8274C960.722 81.4013 961.023 81.0698 961.411 80.8331C961.802 80.594 962.264 80.4744 962.796 80.4744C963.239 80.4744 963.631 80.5561 963.972 80.7195C964.315 80.8804 964.588 81.1089 964.792 81.4048C964.996 81.6984 965.112 82.0417 965.14 82.4347H963.911C963.862 82.1719 963.743 81.9529 963.556 81.7777C963.372 81.6001 963.124 81.5114 962.814 81.5114C962.551 81.5114 962.32 81.5824 962.122 81.7244C961.923 81.8641 961.768 82.0653 961.656 82.3281C961.548 82.5909 961.493 82.9058 961.493 83.2727C961.493 83.6444 961.548 83.964 961.656 84.2315C961.765 84.4967 961.918 84.7015 962.115 84.8459C962.313 84.9879 962.547 85.0589 962.814 85.0589C963.003 85.0589 963.173 85.0234 963.322 84.9524C963.473 84.879 963.6 84.7737 963.702 84.6364C963.804 84.4991 963.874 84.3321 963.911 84.1357H965.14C965.109 84.5215 964.996 84.8636 964.799 85.1619C964.603 85.4579 964.335 85.6899 963.997 85.858C963.658 86.0237 963.26 86.1065 962.803 86.1065ZM968.575 86.1065C968.042 86.1065 967.581 85.9893 967.19 85.755C966.799 85.5206 966.496 85.1927 966.281 84.7713C966.068 84.3499 965.961 83.8575 965.961 83.294C965.961 82.7306 966.068 82.237 966.281 81.8132C966.496 81.3894 966.799 81.0604 967.19 80.826C967.581 80.5916 968.042 80.4744 968.575 80.4744C969.108 80.4744 969.569 80.5916 969.96 80.826C970.35 81.0604 970.652 81.3894 970.865 81.8132C971.081 82.237 971.189 82.7306 971.189 83.294C971.189 83.8575 971.081 84.3499 970.865 84.7713C970.652 85.1927 970.35 85.5206 969.96 85.755C969.569 85.9893 969.108 86.1065 968.575 86.1065ZM968.582 85.0767C968.871 85.0767 969.112 84.9974 969.306 84.8388C969.501 84.6778 969.645 84.4624 969.74 84.1925C969.837 83.9226 969.885 83.6219 969.885 83.2905C969.885 82.9567 969.837 82.6548 969.74 82.3849C969.645 82.1127 969.501 81.8961 969.306 81.7351C969.112 81.5741 968.871 81.4936 968.582 81.4936C968.286 81.4936 968.04 81.5741 967.843 81.7351C967.649 81.8961 967.504 82.1127 967.407 82.3849C967.312 82.6548 967.265 82.9567 967.265 83.2905C967.265 83.6219 967.312 83.9226 967.407 84.1925C967.504 84.4624 967.649 84.6778 967.843 84.8388C968.04 84.9974 968.286 85.0767 968.582 85.0767ZM975.756 83.706V80.5455H977.042V86H975.795V85.0305H975.738C975.615 85.3359 975.413 85.5857 975.131 85.7798C974.852 85.974 974.507 86.071 974.098 86.071C973.74 86.071 973.424 85.9917 973.15 85.8331C972.877 85.6721 972.664 85.4389 972.51 85.1335C972.357 84.8258 972.28 84.4541 972.28 84.0185V80.5455H973.565V83.8196C973.565 84.1652 973.66 84.4399 973.849 84.6435C974.039 84.8471 974.287 84.9489 974.595 84.9489C974.784 84.9489 974.968 84.9027 975.145 84.8104C975.323 84.718 975.469 84.5807 975.582 84.3984C975.698 84.2138 975.756 83.983 975.756 83.706ZM978.364 86V80.5455H979.61V81.4545H979.667C979.766 81.1397 979.937 80.897 980.178 80.7266C980.422 80.5537 980.7 80.4673 981.013 80.4673C981.084 80.4673 981.163 80.4709 981.251 80.478C981.341 80.4827 981.415 80.491 981.474 80.5028V81.6854C981.42 81.6664 981.334 81.6499 981.215 81.6357C981.099 81.6191 980.987 81.6108 980.878 81.6108C980.643 81.6108 980.433 81.6617 980.246 81.7635C980.061 81.8629 979.915 82.0014 979.809 82.179C979.702 82.3565 979.649 82.5613 979.649 82.7933V86H978.364ZM986.64 81.9872L985.468 82.1151C985.435 81.9967 985.377 81.8854 985.294 81.7812C985.213 81.6771 985.104 81.593 984.967 81.5291C984.83 81.4652 984.662 81.4332 984.463 81.4332C984.195 81.4332 983.97 81.4912 983.788 81.6072C983.608 81.7232 983.519 81.8736 983.522 82.0582C983.519 82.2169 983.577 82.3459 983.696 82.4453C983.816 82.5447 984.015 82.6264 984.292 82.6903L985.223 82.8892C985.739 83.0005 986.122 83.1768 986.373 83.4183C986.627 83.6598 986.754 83.9759 986.757 84.3665C986.754 84.7098 986.654 85.0128 986.455 85.2756C986.258 85.536 985.985 85.7396 985.635 85.8864C985.284 86.0331 984.882 86.1065 984.427 86.1065C983.76 86.1065 983.222 85.9669 982.815 85.6875C982.408 85.4058 982.165 85.014 982.087 84.5121L983.341 84.3913C983.397 84.6375 983.518 84.8234 983.703 84.9489C983.887 85.0743 984.128 85.1371 984.424 85.1371C984.729 85.1371 984.974 85.0743 985.159 84.9489C985.346 84.8234 985.439 84.6683 985.439 84.4837C985.439 84.3274 985.379 84.1984 985.258 84.0966C985.14 83.9948 984.955 83.9167 984.704 83.8622L983.774 83.6669C983.251 83.558 982.864 83.3745 982.613 83.1165C982.362 82.8561 982.237 82.527 982.24 82.1293C982.237 81.7931 982.328 81.5019 982.513 81.2557C982.7 81.0071 982.959 80.8153 983.291 80.6804C983.625 80.5431 984.009 80.4744 984.445 80.4744C985.084 80.4744 985.587 80.6106 985.954 80.8828C986.324 81.1551 986.552 81.5232 986.64 81.9872ZM990.232 86.1065C989.685 86.1065 989.212 85.9929 988.815 85.7656C988.419 85.536 988.115 85.2116 987.902 84.7926C987.689 84.3712 987.582 83.8752 987.582 83.3047C987.582 82.7436 987.689 82.2512 987.902 81.8274C988.117 81.4013 988.418 81.0698 988.804 80.8331C989.19 80.594 989.643 80.4744 990.164 80.4744C990.5 80.4744 990.817 80.5289 991.116 80.6378C991.416 80.7443 991.682 80.91 991.911 81.1349C992.143 81.3598 992.326 81.6463 992.458 81.9943C992.591 82.34 992.657 82.7519 992.657 83.2301V83.6243H988.186V82.7578H991.425C991.422 82.5116 991.369 82.2926 991.265 82.1009C991.161 81.9067 991.015 81.754 990.828 81.6428C990.643 81.5315 990.428 81.4759 990.182 81.4759C989.919 81.4759 989.688 81.5398 989.489 81.6676C989.29 81.7931 989.135 81.9588 989.024 82.1648C988.915 82.3684 988.86 82.5921 988.857 82.8359V83.5923C988.857 83.9096 988.915 84.1818 989.031 84.4091C989.147 84.634 989.309 84.8068 989.518 84.9276C989.726 85.0459 989.97 85.1051 990.249 85.1051C990.436 85.1051 990.606 85.0791 990.757 85.027C990.909 84.9725 991.04 84.8932 991.151 84.7891C991.263 84.6849 991.347 84.5559 991.403 84.402L992.604 84.5369C992.528 84.8542 992.384 85.1312 992.17 85.3679C991.96 85.6023 991.69 85.7846 991.361 85.9148C991.032 86.0426 990.655 86.1065 990.232 86.1065Z" fill="#777777" fill-opacity="0.8"/>
<path d="M942.398 50.8317V49.7273H948.2V50.8317H945.952V57H944.646V50.8317H942.398ZM949.262 57V51.5455H950.548V57H949.262ZM949.908 50.7713C949.705 50.7713 949.53 50.7038 949.383 50.5689C949.236 50.4316 949.163 50.267 949.163 50.0753C949.163 49.8812 949.236 49.7166 949.383 49.5817C949.53 49.4444 949.705 49.3757 949.908 49.3757C950.114 49.3757 950.29 49.4444 950.434 49.5817C950.581 49.7166 950.654 49.8812 950.654 50.0753C950.654 50.267 950.581 50.4316 950.434 50.5689C950.29 50.7038 950.114 50.7713 949.908 50.7713ZM951.869 57V51.5455H953.098V52.4723H953.162C953.276 52.1598 953.464 51.916 953.727 51.7408C953.99 51.5632 954.303 51.4744 954.668 51.4744C955.037 51.4744 955.348 51.5644 955.602 51.7443C955.857 51.9219 956.037 52.1645 956.142 52.4723H956.198C956.319 52.1693 956.523 51.9278 956.809 51.7479C957.098 51.5656 957.44 51.4744 957.835 51.4744C958.337 51.4744 958.747 51.633 959.064 51.9503C959.381 52.2675 959.54 52.7304 959.54 53.3388V57H958.251V53.5376C958.251 53.1991 958.161 52.9517 957.981 52.7955C957.801 52.6368 957.581 52.5575 957.32 52.5575C957.01 52.5575 956.768 52.6546 956.593 52.8487C956.42 53.0405 956.333 53.2902 956.333 53.598V57H955.073V53.4844C955.073 53.2027 954.987 52.9777 954.817 52.8097C954.649 52.6416 954.429 52.5575 954.156 52.5575C953.972 52.5575 953.804 52.6049 953.652 52.6996C953.501 52.7919 953.38 52.9233 953.29 53.0938C953.2 53.2618 953.155 53.4583 953.155 53.6832V57H951.869ZM963.259 57.1065C962.712 57.1065 962.24 56.9929 961.842 56.7656C961.447 56.536 961.142 56.2116 960.929 55.7926C960.716 55.3712 960.61 54.8752 960.61 54.3047C960.61 53.7436 960.716 53.2512 960.929 52.8274C961.145 52.4013 961.445 52.0698 961.831 51.8331C962.217 51.594 962.671 51.4744 963.191 51.4744C963.528 51.4744 963.845 51.5289 964.143 51.6378C964.444 51.7443 964.709 51.91 964.939 52.1349C965.171 52.3598 965.353 52.6463 965.485 52.9943C965.618 53.34 965.684 53.7519 965.684 54.2301V54.6243H961.213V53.7578H964.452C964.45 53.5116 964.396 53.2926 964.292 53.1009C964.188 52.9067 964.042 52.754 963.855 52.6428C963.671 52.5315 963.455 52.4759 963.209 52.4759C962.946 52.4759 962.716 52.5398 962.517 52.6676C962.318 52.7931 962.163 52.9588 962.051 53.1648C961.943 53.3684 961.887 53.5921 961.885 53.8359V54.5923C961.885 54.9096 961.943 55.1818 962.059 55.4091C962.175 55.634 962.337 55.8068 962.545 55.9276C962.753 56.0459 962.997 56.1051 963.277 56.1051C963.464 56.1051 963.633 56.0791 963.784 56.027C963.936 55.9725 964.067 55.8932 964.179 55.7891C964.29 55.6849 964.374 55.5559 964.431 55.402L965.631 55.5369C965.555 55.8542 965.411 56.1312 965.198 56.3679C964.987 56.6023 964.717 56.7846 964.388 56.9148C964.059 57.0426 963.683 57.1065 963.259 57.1065ZM969.572 54.0348C969.572 53.147 969.689 52.3314 969.923 51.5881C970.16 50.8423 970.512 50.1534 970.978 49.5213H972.189C972.009 49.7557 971.841 50.0433 971.685 50.3842C971.529 50.7228 971.392 51.0945 971.276 51.4993C971.163 51.9018 971.073 52.3196 971.007 52.7528C970.943 53.1861 970.911 53.6134 970.911 54.0348C970.911 54.5959 970.966 55.1641 971.078 55.7393C971.191 56.3146 971.344 56.8473 971.536 57.3374C971.73 57.8298 971.948 58.2322 972.189 58.5447H970.978C970.512 57.9126 970.16 57.2249 969.923 56.4815C969.689 55.7358 969.572 54.9202 969.572 54.0348ZM974.179 57H972.772L975.333 49.7273H976.959L979.523 57H978.117L976.174 51.2188H976.118L974.179 57ZM974.225 54.1484H978.06V55.2067H974.225V54.1484ZM982.63 59.1591C982.169 59.1591 981.772 59.0964 981.441 58.9709C981.109 58.8478 980.843 58.6821 980.642 58.4737C980.44 58.2654 980.301 58.0346 980.223 57.7812L981.38 57.5007C981.432 57.6072 981.508 57.7126 981.608 57.8168C981.707 57.9233 981.841 58.0109 982.009 58.0795C982.179 58.1506 982.394 58.1861 982.652 58.1861C983.016 58.1861 983.318 58.0973 983.557 57.9197C983.796 57.7446 983.916 57.4557 983.916 57.0533V56.0199H983.852C983.786 56.1525 983.689 56.2886 983.561 56.4283C983.435 56.5679 983.268 56.6851 983.06 56.7798C982.854 56.8745 982.595 56.9219 982.282 56.9219C981.863 56.9219 981.483 56.8236 981.142 56.6271C980.804 56.4283 980.534 56.1323 980.333 55.7393C980.134 55.344 980.034 54.8492 980.034 54.255C980.034 53.656 980.134 53.1506 980.333 52.7386C980.534 52.3243 980.805 52.0107 981.146 51.7976C981.487 51.5821 981.867 51.4744 982.286 51.4744C982.605 51.4744 982.868 51.5289 983.074 51.6378C983.283 51.7443 983.448 51.8733 983.571 52.0249C983.694 52.174 983.788 52.3149 983.852 52.4474H983.923V51.5455H985.191V57.0888C985.191 57.5552 985.079 57.9411 984.857 58.2464C984.634 58.5518 984.33 58.7803 983.944 58.9318C983.558 59.0833 983.12 59.1591 982.63 59.1591ZM982.641 55.9134C982.913 55.9134 983.145 55.8471 983.337 55.7145C983.529 55.5819 983.674 55.3913 983.774 55.1428C983.873 54.8942 983.923 54.5959 983.923 54.2479C983.923 53.9046 983.873 53.6039 983.774 53.3459C983.677 53.0878 983.532 52.8878 983.341 52.7457C983.151 52.6013 982.918 52.5291 982.641 52.5291C982.355 52.5291 982.115 52.6037 981.924 52.7528C981.732 52.902 981.587 53.1068 981.49 53.3672C981.393 53.6252 981.345 53.9188 981.345 54.2479C981.345 54.5817 981.393 54.8741 981.49 55.125C981.59 55.3736 981.735 55.5677 981.927 55.7074C982.121 55.8447 982.359 55.9134 982.641 55.9134ZM988.923 57.1065C988.376 57.1065 987.904 56.9929 987.506 56.7656C987.111 56.536 986.806 56.2116 986.593 55.7926C986.38 55.3712 986.274 54.8752 986.274 54.3047C986.274 53.7436 986.38 53.2512 986.593 52.8274C986.809 52.4013 987.109 52.0698 987.495 51.8331C987.881 51.594 988.335 51.4744 988.855 51.4744C989.192 51.4744 989.509 51.5289 989.807 51.6378C990.108 51.7443 990.373 51.91 990.603 52.1349C990.835 52.3598 991.017 52.6463 991.15 52.9943C991.282 53.34 991.348 53.7519 991.348 54.2301V54.6243H986.877V53.7578H990.116C990.114 53.5116 990.06 53.2926 989.956 53.1009C989.852 52.9067 989.707 52.754 989.52 52.6428C989.335 52.5315 989.119 52.4759 988.873 52.4759C988.61 52.4759 988.38 52.5398 988.181 52.6676C987.982 52.7931 987.827 52.9588 987.716 53.1648C987.607 53.3684 987.551 53.5921 987.549 53.8359V54.5923C987.549 54.9096 987.607 55.1818 987.723 55.4091C987.839 55.634 988.001 55.8068 988.209 55.9276C988.417 56.0459 988.661 56.1051 988.941 56.1051C989.128 56.1051 989.297 56.0791 989.449 56.027C989.6 55.9725 989.731 55.8932 989.843 55.7891C989.954 55.6849 990.038 55.5559 990.095 55.402L991.295 55.5369C991.219 55.8542 991.075 56.1312 990.862 56.3679C990.651 56.6023 990.381 56.7846 990.052 56.9148C989.723 57.0426 989.347 57.1065 988.923 57.1065ZM994.73 54.0348C994.73 54.9202 994.612 55.7358 994.375 56.4815C994.14 57.2249 993.79 57.9126 993.324 58.5447H992.113C992.295 58.3104 992.463 58.0239 992.617 57.6854C992.773 57.3468 992.908 56.9751 993.022 56.5703C993.138 56.1655 993.228 55.7464 993.292 55.3132C993.358 54.88 993.391 54.4538 993.391 54.0348C993.391 53.4737 993.334 52.9055 993.221 52.3303C993.109 51.755 992.957 51.2211 992.763 50.7287C992.571 50.2363 992.354 49.8338 992.113 49.5213H993.324C993.79 50.1534 994.14 50.8423 994.375 51.5881C994.612 52.3314 994.73 53.147 994.73 54.0348Z" fill="black" fill-opacity="0.8"/>
</svg>
